<svg width="1920" height="662" viewBox="0 0 1920 662" fill="none" xmlns="http://www.w3.org/2000/svg">
<g id="herosvg">
<path id="bg-heroline1" opacity="0.5" d="M1920 451.471C1447.3 539.781 1186.34 568.885 754.682 451.471C521.619 388.077 332.639 393.673 4.29153e-05 451.471" stroke="#B0B0B0" stroke-width="3" stroke-linecap="round" stroke-dasharray="3 10"/>
<path id="bg-heroline2" opacity="0.5" d="M1941 293.462C1463.13 197.254 1199.32 165.548 762.936 293.462C527.324 362.526 336.277 356.429 8.58307e-06 293.462" stroke="#B0B0B0" stroke-opacity="0.3" stroke-width="3" stroke-linecap="round" stroke-dasharray="3 10"/>
<path id="bg-heroline3" opacity="0.2" d="M-30.2587 396.514C310.411 249.8 503.226 211.754 852.447 247.888C1371.57 301.601 1607.47 229.656 1925.46 67.2181" stroke="#B0B0B0" stroke-width="3" stroke-linecap="round" stroke-dasharray="3 10"/>
<rect id="quad-hero2" opacity="0.5" x="1051.4" y="209.19" width="92.6193" height="92.6193" rx="10" transform="rotate(-144.493 1051.4 209.19)" fill="url(#paint0_linear_564_648)"/>
<rect id="quad-hero1" opacity="0.5" x="1535" y="388.595" width="96.0073" height="96.0073" rx="10" transform="rotate(-46.4597 1535 388.595)" fill="url(#paint1_linear_564_648)"/>
<circle id="bola-hero1" cx="689" cy="436" r="30" fill="url(#paint2_linear_564_648)"/>
<circle id="bola-hero2" cx="1304.64" cy="262.64" r="15" transform="rotate(78.7425 1304.64 262.64)" fill="url(#paint3_linear_564_648)"/>
<rect id="phone-starfall4" x="1800.5" y="388.5" width="299" height="2" rx="1" transform="rotate(-90 1800.5 388.5)" stroke="url(#paint4_linear_564_648)"/>
<rect id="phone-starfall3" x="1404.5" y="493.5" width="299" height="2" rx="1" transform="rotate(-90 1404.5 493.5)" stroke="url(#paint5_linear_564_648)"/>
<rect id="phone-starfall2" x="772.5" y="661.5" width="299" height="2" rx="1" transform="rotate(-90 772.5 661.5)" stroke="url(#paint6_linear_564_648)"/>
<rect id="phone-starfall1" x="51.5" y="605.5" width="299" height="2" rx="1" transform="rotate(-90 51.5 605.5)" stroke="url(#paint7_linear_564_648)"/>
</g>
<defs>
<linearGradient id="paint0_linear_564_648" x1="1051.4" y1="209.19" x2="1144.02" y2="301.809" gradientUnits="userSpaceOnUse">
<stop stop-color="#D9D9D9" stop-opacity="0.3"/>
<stop offset="1" stop-color="#8D8D8D"/>
</linearGradient>
<linearGradient id="paint1_linear_564_648" x1="1535" y1="388.595" x2="1631.01" y2="484.602" gradientUnits="userSpaceOnUse">
<stop stop-color="#D9D9D9" stop-opacity="0"/>
<stop offset="1" stop-color="#8D8D8D"/>
</linearGradient>
<linearGradient id="paint2_linear_564_648" x1="659" y1="435.032" x2="719" y2="435.032" gradientUnits="userSpaceOnUse">
<stop stop-color="#A48FF5"/>
<stop offset="0.581178" stop-color="#F3A38D" stop-opacity="0.51"/>
<stop offset="1" stop-color="#F3A38D" stop-opacity="0"/>
</linearGradient>
<linearGradient id="paint3_linear_564_648" x1="1289.64" y1="262.156" x2="1319.64" y2="262.156" gradientUnits="userSpaceOnUse">
<stop stop-color="#A48FF5"/>
<stop offset="0.581178" stop-color="#F3A38D" stop-opacity="0.51"/>
<stop offset="1" stop-color="#F3A38D" stop-opacity="0"/>
</linearGradient>
<linearGradient id="paint4_linear_564_648" x1="1800" y1="390.452" x2="2100" y2="390.452" gradientUnits="userSpaceOnUse">
<stop stop-color="#A48FF5"/>
<stop offset="0.421875" stop-color="#F3A38D"/>
<stop offset="0.869792" stop-color="#F3A38D" stop-opacity="0"/>
</linearGradient>
<linearGradient id="paint5_linear_564_648" x1="1404" y1="495.452" x2="1704" y2="495.452" gradientUnits="userSpaceOnUse">
<stop stop-color="#A48FF5"/>
<stop offset="0.421875" stop-color="#F3A38D"/>
<stop offset="0.869792" stop-color="#F3A38D" stop-opacity="0"/>
</linearGradient>
<linearGradient id="paint6_linear_564_648" x1="772" y1="663.452" x2="1072" y2="663.452" gradientUnits="userSpaceOnUse">
<stop stop-color="#A48FF5"/>
<stop offset="0.421875" stop-color="#F3A38D"/>
<stop offset="0.869792" stop-color="#F3A38D" stop-opacity="0"/>
</linearGradient>
<linearGradient id="paint7_linear_564_648" x1="51" y1="607.452" x2="351" y2="607.452" gradientUnits="userSpaceOnUse">
<stop stop-color="#A48FF5"/>
<stop offset="0.421875" stop-color="#F3A38D"/>
<stop offset="0.869792" stop-color="#F3A38D" stop-opacity="0"/>
</linearGradient>
</defs>
</svg>
