<svg width="202" height="172" viewBox="0 0 202 172" fill="none" xmlns="http://www.w3.org/2000/svg">
<g id="entry">
<g id="logo">
<g id="logofinal">
<g id="coruja">
<path id="corpo" d="M43.5 89.4435V143.586C43.5 144.477 42.4229 144.923 41.7929 144.293L35.2071 137.707C34.8166 137.317 34.1834 137.317 33.7929 137.707L27.7071 143.793C27.0771 144.423 26 143.977 26 143.086V89.4378C26 89.1587 25.8834 88.8923 25.6783 88.703L0.32172 65.297C0.116638 65.1077 0 64.8413 0 64.5622V40.2915C0 39.4186 1.04006 38.9647 1.68004 39.5583L33.8296 69.3782C34.2092 69.7302 34.7947 69.7344 35.1792 69.3878L68.3305 39.5049C68.9738 38.925 70 39.3816 70 40.2477V64.5565C70 64.8389 69.8806 65.1081 69.6713 65.2977L43.8287 88.7023C43.6194 88.8919 43.5 89.1611 43.5 89.4435Z" fill="#1D1E1F"/>
<path id="asaL" d="M21.1811 89.7034L1.6811 71.5638C1.04147 70.9688 0 71.4224 0 72.296V169.514C0 170.415 1.09757 170.857 1.72139 170.207L11.7214 159.79C11.9002 159.604 12 159.356 12 159.098V102.914C12 102.023 13.0771 101.577 13.7071 102.207L14.7071 103.207C14.8946 103.395 15 103.649 15 103.914V104V109.71V116.42V129.841V154.219C15 155.117 16.0909 155.56 16.7168 154.917L21.2168 150.291C21.3984 150.104 21.5 149.854 21.5 149.594V90.4355C21.5 90.1578 21.3845 89.8925 21.1811 89.7034Z" fill="#1D1E1F"/>
<path id="asaR" d="M48.3367 89.2016L68.3257 71.484C68.9727 70.9106 69.9933 71.3728 69.989 72.2373L69.5118 169.602C69.5074 170.491 68.433 170.933 67.8047 170.305L57.7929 160.293C57.6054 160.105 57.5 159.851 57.5 159.586V101.869C57.5 101.07 56.6099 100.593 55.9453 101.036L54.9453 101.703C54.6671 101.889 54.5 102.201 54.5 102.535V154.586C54.5 155.477 53.4229 155.923 52.7929 155.293L48.2929 150.793C48.1054 150.605 48 150.351 48 150.086V89.9499C48 89.6638 48.1226 89.3914 48.3367 89.2016Z" fill="#1D1E1F"/>
<path id="cabe&#195;&#167;a" d="M0 5V32.5636C0 32.8419 0.115943 33.1075 0.319957 33.2968L34.5 65L69.6695 33.2979C69.8799 33.1083 70 32.8383 70 32.5551V5C70 4.44772 69.5523 4 69 4H61.4084C61.1466 4 60.8953 4.10266 60.7084 4.28593L35.5 29L10.2916 4.28593C10.1047 4.10266 9.85336 4 9.59157 4H1C0.447715 4 0 4.44772 0 5Z" fill="#1D1E1F"/>
<path id="cranio" d="M35.5 4H17.4142C16.5233 4 16.0771 5.07714 16.7071 5.70711L35.5 24.5L54.2929 5.70711C54.9229 5.07714 54.4767 4 53.5858 4H35.5Z" fill="#1D1E1F"/>
<path id="olhoL" d="M17.6838 24.9487C19.5851 25.5825 21.3233 25.6594 22.7939 25.2171C24.2774 24.7709 25.4226 23.8138 26.1262 22.5167C26.5281 21.7756 26.3372 20.9498 25.8977 20.4093C25.5797 20.0182 25.247 19.5984 24.9043 19.1659C23.9847 18.0057 22.9928 16.754 22.0161 15.7175C21.339 14.9988 20.6286 14.3379 19.9042 13.8512C19.1886 13.3704 18.3715 13 17.5 13C15.9432 13 14.755 13.6534 13.9961 14.7484C13.2732 15.7915 13 17.1442 13 18.5C13 19.8725 13.2762 21.2092 14.0424 22.3609C14.8149 23.5219 16.0179 24.3934 17.6838 24.9487Z" fill="url(#paint0_linear_573_488)" stroke="#EBE7E1" stroke-width="2"/>
<path id="olhoR" d="M52.1629 25.0427C50.4293 25.6183 48.8369 25.6946 47.4813 25.2978C46.113 24.8973 45.0483 24.0307 44.3858 22.8494C43.966 22.101 44.1668 21.2654 44.6052 20.7274C44.884 20.3851 45.1755 20.0188 45.4759 19.6413C46.3215 18.5786 47.2373 17.4276 48.139 16.4771C48.7564 15.8264 49.407 15.2251 50.073 14.7812C50.7306 14.3429 51.4895 14 52.3043 14C53.7514 14 54.8634 14.6063 55.574 15.6274C56.2486 16.597 56.5 17.8483 56.5 19.0922C56.5 20.3527 56.2453 21.5881 55.5326 22.6549C54.8139 23.7307 53.6976 24.5332 52.1629 25.0427Z" fill="url(#paint1_linear_573_488)" stroke="#EBE7E1" stroke-width="2"/>
</g>
</g>
</g>
<g id="solaria">
<path id="Y" d="M196.091 121.5L179.578 147.548L179.5 147.671V147.816V165.3H170.5V147.816V147.664L170.415 147.537L152.938 121.5H162.732L174.584 139.277L175.039 139.96L175.437 139.243L185.294 121.5H196.091Z" fill="#1D1E1F" stroke="#1D1E1F"/>
<path id="r" d="M134.59 148.712L147.784 165.616H135.5L123.809 149.012L123.66 148.8H123.4H113.096H112.596V149.3V165.616H102.78V121.386H129.288C134.08 121.386 137.622 123.19 139.971 125.819C142.329 128.458 143.508 131.954 143.508 135.361C143.508 140.618 140.604 145.904 134.819 147.933L134.162 148.163L134.59 148.712ZM113.096 129.874H112.596V130.374V140.348V140.848H113.096H126.664C128.816 140.848 130.479 140.191 131.609 139.159C132.739 138.128 133.308 136.746 133.308 135.361C133.308 133.975 132.739 132.594 131.609 131.563C130.479 130.53 128.816 129.874 126.664 129.874H113.096Z" fill="#1D1E1F" stroke="#1D1E1F"/>
<path id="a" d="M162.654 105.4H152.72L169.476 60.4436H179.724L196.283 105.4H185.367L175.477 73.7812L175.043 72.3931L174.532 73.7548L162.654 105.4Z" fill="#1D1E1F" stroke="#1D1E1F"/>
<path id="l" d="M112.596 97.1567V97.6567H113.096H141.268V105.672H102.78V61.5H112.596V97.1567Z" fill="#1D1E1F" stroke="#1D1E1F"/>
<path id="o" d="M176.101 0.5C181.854 0.5 188.109 2.43374 192.915 6.31927C197.709 10.1947 201.073 16.0175 201.073 23.8496C201.073 31.6817 197.709 37.5045 192.915 41.3799C188.109 45.2654 181.854 47.1992 176.101 47.1992C170.316 47.1992 164.046 45.2651 159.231 41.3797C154.43 37.5043 151.065 31.6816 151.065 23.8496C151.065 16.0176 154.43 10.1949 159.231 6.31952C164.046 2.43405 170.316 0.5 176.101 0.5ZM176.101 37.9049C179.531 37.9049 183.261 36.7703 186.143 34.4452C189.039 32.1096 191.065 28.5806 191.065 23.8496C191.065 19.1189 189.039 15.5745 186.145 13.2231C183.263 10.8819 179.533 9.73039 176.101 9.73039C172.639 9.73039 168.893 10.8814 166.003 13.2227C163.1 15.5742 161.073 19.1188 161.073 23.8496C161.073 28.5807 163.1 32.1099 166.004 34.4456C168.895 36.7708 172.641 37.9049 176.101 37.9049Z" fill="#1D1E1F" stroke="#1D1E1F"/>
<path id="s" d="M122.952 0.755737C131.262 0.755737 140.272 3.18267 145.834 6.98347L141.129 14.7794C139.044 13.105 136.211 11.7565 133.198 10.8084C129.955 9.78788 126.465 9.21885 123.4 9.21885C120.997 9.21885 118.831 9.55754 117.246 10.3237C115.641 11.0997 114.58 12.3497 114.58 14.1307C114.58 15.31 115.19 16.2076 116.144 16.8935C117.08 17.5667 118.381 18.0653 119.876 18.4817C121.378 18.9002 123.122 19.2481 124.97 19.5977C125.313 19.6625 125.659 19.7274 126.009 19.7929C127.55 20.0818 129.149 20.3815 130.749 20.7333C134.682 21.5982 138.543 22.7628 141.414 24.7811C144.255 26.7779 146.132 29.6099 146.132 33.8881C146.132 38.5981 143.7 41.8997 139.875 44.0503C136.025 46.2147 130.777 47.1992 125.256 47.1992C116.43 47.1992 107.045 44.7032 101.658 40.7285L106.435 32.6791C108.626 34.513 111.807 35.9823 115.224 37.0124C118.898 38.12 122.898 38.7361 126.344 38.7361C128.745 38.7361 130.936 38.4135 132.546 37.7024C134.162 36.9887 135.292 35.8276 135.292 34.1439C135.292 32.9355 134.695 32.0006 133.746 31.2737C132.814 30.5603 131.517 30.0239 130.027 29.5732C128.53 29.1203 126.791 28.7407 124.95 28.3626C124.524 28.2751 124.092 28.1877 123.656 28.0993C122.201 27.8045 120.698 27.5 119.193 27.1509C115.274 26.2419 111.428 25.048 108.567 23.0182C105.736 21.0097 103.868 18.1847 103.868 13.9389C103.868 9.20474 106.068 5.93908 109.532 3.83195C113.024 1.70766 117.817 0.755737 122.952 0.755737Z" fill="#1D1E1F" stroke="#1D1E1F"/>
</g>
</g>
<defs>
<linearGradient id="paint0_linear_573_488" x1="20" y1="14" x2="20" y2="25" gradientUnits="userSpaceOnUse">
<stop stop-color="#846CE7"/>
<stop offset="1" stop-color="#DC89BB"/>
</linearGradient>
<linearGradient id="paint1_linear_573_488" x1="50.0217" y1="15" x2="50.0217" y2="25.003" gradientUnits="userSpaceOnUse">
<stop stop-color="#846CE7"/>
<stop offset="1" stop-color="#DC89BB"/>
</linearGradient>
</defs>
</svg>
