<svg width="170" height="24" viewBox="0 0 170 24" fill="none" xmlns="http://www.w3.org/2000/svg">
<path d="M22.752 3.424C19.936 1.408 15.264 0.128 10.976 0.128C5.792 0.128 1.184 2.048 1.184 6.976C1.184 15.84 16.896 13.024 16.896 17.088C16.896 18.496 15.04 19.136 12.672 19.136C9.28 19.136 4.768 17.92 2.656 15.968L0 20.448C2.72 22.56 7.584 23.872 12.128 23.872C17.696 23.872 22.816 21.888 22.816 16.96C22.816 8.032 7.04 10.976 7.04 7.072C7.04 5.536 8.832 4.864 11.2 4.864C14.208 4.864 18.08 5.984 20.128 7.776L22.752 3.424Z" fill="#EBE7E1"/>
<path d="M53.4868 11.936C53.4868 3.936 46.6068 0 40.7508 0C34.8628 0 27.9827 3.936 27.9827 11.936C27.9827 19.936 34.8628 23.872 40.7508 23.872C46.6068 23.872 53.4868 19.936 53.4868 11.936ZM47.9828 11.936C47.9828 16.512 44.0788 18.72 40.7508 18.72C37.3908 18.72 33.4868 16.512 33.4868 11.936C33.4868 7.36 37.3908 5.12 40.7508 5.12C44.0788 5.12 47.9828 7.36 47.9828 11.936Z" fill="#EBE7E1"/>
<path d="M66.323 18.624V0.736H60.915V23.136H80.659V18.624H66.323Z" fill="#EBE7E1"/>
<path d="M86.1475 23.136H91.8755L93.4435 19.872H105.988L107.556 23.136H113.284L102.467 0.416H96.9955L86.1475 23.136ZM99.7155 6.816L103.812 15.36H95.6195L99.7155 6.816Z" fill="#EBE7E1"/>
<path d="M120.003 23.136H125.411V14.72H130.562L136.482 23.136H143.267L136.355 14.272C139.363 13.216 140.867 10.464 140.867 7.744C140.867 4.224 138.435 0.736 133.507 0.736H120.003V23.136ZM125.411 5.248H132.195C134.243 5.248 135.267 6.496 135.267 7.744C135.267 8.992 134.243 10.24 132.195 10.24H125.411V5.248Z" fill="#EBE7E1"/>
<path d="M144.516 0.736L154.244 14.144V23.136H159.652V13.952L150.82 0.736H144.516ZM158.24 7.13599L161.24 11.136L169.38 0.736H163.076L158.24 7.13599Z" fill="#EBE7E1"/>
</svg>
