<svg width="16" height="16" viewBox="0 0 16 16" fill="none" xmlns="http://www.w3.org/2000/svg">
<path d="M4.65405 3C5.11506 3 5.54095 3.03728 5.93172 3.14912C6.32248 3.22368 6.643 3.37746 6.92839 3.56386C7.21378 3.75025 7.42453 4.01587 7.56942 4.35605C7.70992 4.69623 7.78456 5.11097 7.78456 5.56298C7.78456 6.08956 7.67918 6.54158 7.42892 6.88175C7.21378 7.22193 6.86253 7.52483 6.43225 7.74851C7.03815 7.93491 7.49917 8.27508 7.78017 8.7271C8.06116 9.17912 8.24118 9.74297 8.24118 10.386C8.24118 10.9126 8.1358 11.3646 7.95579 11.7421C7.78017 12.1196 7.49478 12.4597 7.17426 12.6834C6.85375 12.9118 6.46298 13.0981 6.03709 13.21C5.6112 13.3218 5.18531 13.3964 4.75942 13.3964L0 13.4057V3H4.65405ZM4.36866 7.22193C4.75942 7.22193 5.07994 7.11009 5.32581 6.91903C5.57169 6.72797 5.68145 6.39246 5.68145 5.97772C5.68145 5.74938 5.64633 5.5257 5.57608 5.37658C5.50583 5.22746 5.40045 5.11097 5.25556 4.99913C5.11506 4.92457 4.97017 4.85001 4.79455 4.81273C4.61892 4.77545 4.43891 4.77545 4.22816 4.77545H2.16896V7.22659C2.16896 7.22193 4.36866 7.22193 4.36866 7.22193ZM4.47403 11.6722C4.68917 11.6722 4.89992 11.6349 5.07994 11.5976C5.25556 11.5604 5.43558 11.4858 5.57608 11.3693C5.71658 11.2528 5.82634 11.141 5.93172 10.9546C6.00197 10.7682 6.07222 10.5398 6.07222 10.2742C6.07222 9.74763 5.93172 9.37017 5.64633 9.10456C5.36094 8.87622 4.97017 8.76438 4.50916 8.76438H2.16896V11.6675H4.47403V11.6722Z" fill="#404040"/>
<path d="M11.3322 11.6349C11.6176 11.9378 12.0434 12.0869 12.6098 12.0869C13.0006 12.0869 13.3562 11.9751 13.6416 11.784C13.927 11.5557 14.1026 11.332 14.1729 11.1037H15.9116C15.6262 12.0077 15.2003 12.6508 14.6339 13.0655C14.0675 13.443 13.3914 13.6667 12.5747 13.6667C12.0083 13.6667 11.5078 13.5548 11.0468 13.3638C10.5858 13.1774 10.2301 12.9118 9.90961 12.5343C9.5891 12.1941 9.34322 11.7794 9.19833 11.2901C9.02271 10.8008 8.94807 10.2742 8.94807 9.66842C8.94807 9.10456 9.01832 8.57332 9.19833 8.08403C9.37835 7.59473 9.62422 7.17999 9.94474 6.80253C10.2653 6.46236 10.656 6.15946 11.0819 5.97306C11.5429 5.78666 12.0039 5.67016 12.5747 5.67016C13.1806 5.67016 13.7119 5.782 14.1729 6.04762C14.6339 6.31324 14.9895 6.61148 15.2749 7.06349C15.5603 7.47823 15.7711 7.96753 15.916 8.4941C15.9862 9.02068 16.0213 9.55192 15.9862 10.1531H10.836C10.836 10.7682 11.0468 11.332 11.3322 11.6349ZM13.5714 7.67395C13.3211 7.40833 12.9304 7.25921 12.4693 7.25921C12.1488 7.25921 11.903 7.33377 11.6878 7.44561C11.4727 7.55745 11.3322 7.71123 11.1917 7.86035C11.0512 8.00947 10.9765 8.20052 10.9414 8.38692C10.9063 8.57332 10.8712 8.7271 10.8712 8.87622H14.0675C13.9973 8.31702 13.8173 7.93957 13.5714 7.67395ZM10.4453 3.71764H14.4232V4.73351H10.4453V3.71764Z" fill="#404040"/>
</svg>
