<svg width="923" height="770" viewBox="0 0 923 770" fill="none" xmlns="http://www.w3.org/2000/svg">
<g filter="url(#filter0_d_387_424)">
<rect width="523.309" height="436.65" rx="60" transform="matrix(-0.98328 0.182102 0.348313 0.937378 605.559 95.3984)" fill="#FAF8F5"/>
</g>
<g filter="url(#filter1_d_387_424)">
<rect width="523.309" height="436.65" rx="60" transform="matrix(-0.983255 0.182236 0.348081 0.937464 681.582 0)" fill="#FAF8F5"/>
</g>
<g filter="url(#filter2_d_387_424)">
<rect width="397.785" height="42.4033" rx="12" transform="matrix(-0.98328 0.182102 0.348313 0.937378 900.23 263.229)" fill="#BBBBBB"/>
</g>
<rect width="136.414" height="31.8025" rx="12" transform="matrix(-0.98328 0.182102 0.348313 0.937378 650.217 30.9165)" fill="#909090"/>
<rect width="136.414" height="31.8025" rx="12" transform="matrix(-0.98328 0.182102 0.348313 0.937378 575.962 95.3984)" fill="#909090"/>
<rect width="231.821" height="31.8025" rx="12" transform="matrix(-0.98328 0.182102 0.348313 0.937378 762.484 113.948)" fill="#909090"/>
<g filter="url(#filter3_d_387_424)">
<rect width="231.821" height="31.8025" rx="12" transform="matrix(-0.98328 0.182102 0.348313 0.937378 669.665 181.964)" fill="#BBBBBB"/>
</g>
<rect width="231.821" height="31.8025" rx="12" transform="matrix(-0.98328 0.182102 0.348313 0.937378 555.631 254.396)" fill="#909090"/>
<g filter="url(#filter4_d_387_424)">
<rect width="107.744" height="31.8025" rx="12" transform="matrix(-0.98328 0.182102 0.348313 0.937378 461.943 456)" fill="#BBBBBB"/>
</g>
<g filter="url(#filter5_d_387_424)">
<path d="M359.742 447.924C358.306 449.254 355.724 447.771 355.154 445.708L349.264 421.798L325.17 410.931C322.919 409.915 322.517 407.166 324.505 406.378L346.587 397.625L347.879 375.852C347.995 373.89 350.559 373.275 352.336 374.782L372.058 391.51L397.105 388.949C399.359 388.718 401.401 391.073 400.485 392.849L390.69 411.852L404.755 431.938C406.074 433.821 404.708 435.871 402.426 435.434L376.506 430.465L359.742 447.924Z" fill="url(#paint0_linear_387_424)"/>
</g>
<g filter="url(#filter6_d_387_424)">
<path d="M470.987 424.015C469.551 425.345 466.97 423.862 466.399 421.798L460.509 397.889L436.416 387.022C434.164 386.006 433.762 383.257 435.75 382.469L457.832 373.716L459.124 351.942C459.241 349.981 461.805 349.366 463.581 350.872L483.303 367.601L508.35 365.039C510.605 364.809 512.646 367.164 511.731 368.94L501.936 387.943L516 408.029C517.319 409.912 515.954 411.962 513.671 411.524L487.752 406.556L470.987 424.015Z" fill="url(#paint1_linear_387_424)"/>
</g>
<path d="M762.525 305.31L764.277 283.186C764.356 282.192 765.035 281.54 765.912 281.327C766.794 281.113 767.876 281.342 768.749 282.112L788.079 299.175L813.133 296.65C814.5 296.513 815.768 297.339 816.343 298.413C816.41 298.537 816.468 298.665 816.515 298.795C816.733 299.395 816.733 300.041 816.425 300.625L806.244 319.907L819.856 340.363C821.133 342.282 819.726 344.361 817.457 343.909L791.691 338.778L775.091 354.08C774.908 354.248 774.704 354.379 774.487 354.475C772.961 355.145 770.747 354.1 770.287 352.264L764.684 329.885L740.866 318.765C740.066 318.392 739.509 317.792 739.217 317.139C739.001 316.657 738.93 316.146 739.012 315.676C739.127 315.014 739.548 314.435 740.298 314.137L762.525 305.31ZM789.327 333.526C789.71 333.432 790.132 333.425 790.562 333.511L812.199 337.819L800.809 320.702C800.272 319.896 800.181 318.959 800.568 318.226L808.97 302.313L788.244 304.402C787.387 304.488 786.464 304.173 785.764 303.556L769.42 289.128L769.418 289.144L789.327 333.526Z" fill="url(#paint2_linear_387_424)"/>
<g filter="url(#filter7_d_387_424)">
<path d="M573.057 401.078C571.621 402.408 569.04 400.924 568.47 398.861L562.58 374.952L538.486 364.085C536.234 363.069 535.832 360.32 537.82 359.532L559.903 350.779L561.195 329.005C561.311 327.044 563.875 326.428 565.652 327.935L585.374 344.664L610.42 342.102C612.675 341.872 614.717 344.227 613.801 346.003L604.006 365.006L618.071 385.092C619.39 386.975 618.024 389.025 615.742 388.587L589.822 383.619L573.057 401.078Z" fill="url(#paint3_linear_387_424)"/>
</g>
<g filter="url(#filter8_d_387_424)">
<path d="M676.275 378.141C674.839 379.471 672.257 377.987 671.687 375.924L665.797 352.015L641.703 341.148C639.452 340.132 639.05 337.383 641.038 336.595L663.12 327.842L664.412 306.068C664.528 304.107 667.092 303.491 668.869 304.998L688.591 321.727L713.638 319.165C715.893 318.935 717.934 321.29 717.019 323.066L707.223 342.069L721.288 362.155C722.607 364.038 721.241 366.088 718.959 365.65L693.04 360.682L676.275 378.141Z" fill="url(#paint4_linear_387_424)"/>
</g>
<g filter="url(#filter9_d_387_424)">
<circle r="70.5" transform="matrix(0.969231 -0.246153 0.37881 0.925474 320.037 171.6)" fill="#D5D4D4"/>
</g>
<path d="M362.331 191.225L359.553 184.438C358.08 180.838 355.16 177.768 351.437 175.904C347.714 174.039 343.493 173.532 339.701 174.495L311.109 181.757C307.317 182.72 304.266 185.073 302.627 188.3C300.988 191.526 300.895 195.361 302.369 198.961L305.147 205.748" stroke="#909090" stroke-width="8" stroke-linecap="round" stroke-linejoin="round"/>
<path d="M319.849 164.553C327.745 162.547 331.658 154.845 328.589 147.348C325.521 139.852 316.633 135.4 308.737 137.405C300.842 139.411 296.929 147.113 299.997 154.61C303.065 162.106 311.954 166.558 319.849 164.553Z" stroke="#909090" stroke-width="8" stroke-linecap="round" stroke-linejoin="round"/>
<defs>
<filter id="filter0_d_387_424" x="-36.5316" y="105.829" width="791.713" height="663.741" filterUnits="userSpaceOnUse" color-interpolation-filters="sRGB">
<feFlood flood-opacity="0" result="BackgroundImageFix"/>
<feColorMatrix in="SourceAlpha" type="matrix" values="0 0 0 0 0 0 0 0 0 0 0 0 0 0 0 0 0 0 127 0" result="hardAlpha"/>
<feOffset dx="-65" dy="100"/>
<feGaussianBlur stdDeviation="40"/>
<feColorMatrix type="matrix" values="0 0 0 0 0 0 0 0 0 0 0 0 0 0 0 0 0 0 0.15 0"/>
<feBlend mode="normal" in2="BackgroundImageFix" result="effect1_dropShadow_387_424"/>
<feBlend mode="normal" in="SourceGraphic" in2="effect1_dropShadow_387_424" result="shape"/>
</filter>
<filter id="filter1_d_387_424" x="104.496" y="10.436" width="751.616" height="603.836" filterUnits="userSpaceOnUse" color-interpolation-filters="sRGB">
<feFlood flood-opacity="0" result="BackgroundImageFix"/>
<feColorMatrix in="SourceAlpha" type="matrix" values="0 0 0 0 0 0 0 0 0 0 0 0 0 0 0 0 0 0 127 0" result="hardAlpha"/>
<feOffset dx="-20" dy="60"/>
<feGaussianBlur stdDeviation="30"/>
<feColorMatrix type="matrix" values="0 0 0 0 0 0 0 0 0 0 0 0 0 0 0 0 0 0 0.15 0"/>
<feBlend mode="normal" in2="BackgroundImageFix" result="effect1_dropShadow_387_424"/>
<feBlend mode="normal" in="SourceGraphic" in2="effect1_dropShadow_387_424" result="shape"/>
</filter>
<filter id="filter2_d_387_424" x="489.554" y="259.202" width="432.988" height="142.24" filterUnits="userSpaceOnUse" color-interpolation-filters="sRGB">
<feFlood flood-opacity="0" result="BackgroundImageFix"/>
<feColorMatrix in="SourceAlpha" type="matrix" values="0 0 0 0 0 0 0 0 0 0 0 0 0 0 0 0 0 0 127 0" result="hardAlpha"/>
<feOffset dx="-6" dy="11"/>
<feGaussianBlur stdDeviation="8.5"/>
<feComposite in2="hardAlpha" operator="out"/>
<feColorMatrix type="matrix" values="0 0 0 0 0 0 0 0 0 0 0 0 0 0 0 0 0 0 0.2 0"/>
<feBlend mode="normal" in2="BackgroundImageFix" result="effect1_dropShadow_387_424"/>
<feBlend mode="normal" in="SourceGraphic" in2="effect1_dropShadow_387_424" result="shape"/>
</filter>
<filter id="filter3_d_387_424" x="422.179" y="177.937" width="266.106" height="102.081" filterUnits="userSpaceOnUse" color-interpolation-filters="sRGB">
<feFlood flood-opacity="0" result="BackgroundImageFix"/>
<feColorMatrix in="SourceAlpha" type="matrix" values="0 0 0 0 0 0 0 0 0 0 0 0 0 0 0 0 0 0 127 0" result="hardAlpha"/>
<feOffset dx="-6" dy="11"/>
<feGaussianBlur stdDeviation="8.5"/>
<feComposite in2="hardAlpha" operator="out"/>
<feColorMatrix type="matrix" values="0 0 0 0 0 0 0 0 0 0 0 0 0 0 0 0 0 0 0.2 0"/>
<feBlend mode="normal" in2="BackgroundImageFix" result="effect1_dropShadow_387_424"/>
<feBlend mode="normal" in="SourceGraphic" in2="effect1_dropShadow_387_424" result="shape"/>
</filter>
<filter id="filter4_d_387_424" x="336.458" y="451.973" width="144.104" height="79.4858" filterUnits="userSpaceOnUse" color-interpolation-filters="sRGB">
<feFlood flood-opacity="0" result="BackgroundImageFix"/>
<feColorMatrix in="SourceAlpha" type="matrix" values="0 0 0 0 0 0 0 0 0 0 0 0 0 0 0 0 0 0 127 0" result="hardAlpha"/>
<feOffset dx="-6" dy="11"/>
<feGaussianBlur stdDeviation="8.5"/>
<feComposite in2="hardAlpha" operator="out"/>
<feColorMatrix type="matrix" values="0 0 0 0 0 0 0 0 0 0 0 0 0 0 0 0 0 0 0.2 0"/>
<feBlend mode="normal" in2="BackgroundImageFix" result="effect1_dropShadow_387_424"/>
<feBlend mode="normal" in="SourceGraphic" in2="effect1_dropShadow_387_424" result="shape"/>
</filter>
<filter id="filter5_d_387_424" x="300.223" y="367.94" width="116.049" height="108.49" filterUnits="userSpaceOnUse" color-interpolation-filters="sRGB">
<feFlood flood-opacity="0" result="BackgroundImageFix"/>
<feColorMatrix in="SourceAlpha" type="matrix" values="0 0 0 0 0 0 0 0 0 0 0 0 0 0 0 0 0 0 127 0" result="hardAlpha"/>
<feOffset dx="-6" dy="11"/>
<feGaussianBlur stdDeviation="8.5"/>
<feComposite in2="hardAlpha" operator="out"/>
<feColorMatrix type="matrix" values="0 0 0 0 0 0 0 0 0 0 0 0 0 0 0 0 0 0 0.2 0"/>
<feBlend mode="normal" in2="BackgroundImageFix" result="effect1_dropShadow_387_424"/>
<feBlend mode="normal" in="SourceGraphic" in2="effect1_dropShadow_387_424" result="shape"/>
</filter>
<filter id="filter6_d_387_424" x="411.468" y="344.031" width="116.048" height="108.49" filterUnits="userSpaceOnUse" color-interpolation-filters="sRGB">
<feFlood flood-opacity="0" result="BackgroundImageFix"/>
<feColorMatrix in="SourceAlpha" type="matrix" values="0 0 0 0 0 0 0 0 0 0 0 0 0 0 0 0 0 0 127 0" result="hardAlpha"/>
<feOffset dx="-6" dy="11"/>
<feGaussianBlur stdDeviation="8.5"/>
<feComposite in2="hardAlpha" operator="out"/>
<feColorMatrix type="matrix" values="0 0 0 0 0 0 0 0 0 0 0 0 0 0 0 0 0 0 0.2 0"/>
<feBlend mode="normal" in2="BackgroundImageFix" result="effect1_dropShadow_387_424"/>
<feBlend mode="normal" in="SourceGraphic" in2="effect1_dropShadow_387_424" result="shape"/>
</filter>
<filter id="filter7_d_387_424" x="513.538" y="321.094" width="116.048" height="108.49" filterUnits="userSpaceOnUse" color-interpolation-filters="sRGB">
<feFlood flood-opacity="0" result="BackgroundImageFix"/>
<feColorMatrix in="SourceAlpha" type="matrix" values="0 0 0 0 0 0 0 0 0 0 0 0 0 0 0 0 0 0 127 0" result="hardAlpha"/>
<feOffset dx="-6" dy="11"/>
<feGaussianBlur stdDeviation="8.5"/>
<feComposite in2="hardAlpha" operator="out"/>
<feColorMatrix type="matrix" values="0 0 0 0 0 0 0 0 0 0 0 0 0 0 0 0 0 0 0.2 0"/>
<feBlend mode="normal" in2="BackgroundImageFix" result="effect1_dropShadow_387_424"/>
<feBlend mode="normal" in="SourceGraphic" in2="effect1_dropShadow_387_424" result="shape"/>
</filter>
<filter id="filter8_d_387_424" x="616.756" y="298.157" width="116.048" height="108.49" filterUnits="userSpaceOnUse" color-interpolation-filters="sRGB">
<feFlood flood-opacity="0" result="BackgroundImageFix"/>
<feColorMatrix in="SourceAlpha" type="matrix" values="0 0 0 0 0 0 0 0 0 0 0 0 0 0 0 0 0 0 127 0" result="hardAlpha"/>
<feOffset dx="-6" dy="11"/>
<feGaussianBlur stdDeviation="8.5"/>
<feComposite in2="hardAlpha" operator="out"/>
<feColorMatrix type="matrix" values="0 0 0 0 0 0 0 0 0 0 0 0 0 0 0 0 0 0 0.2 0"/>
<feBlend mode="normal" in2="BackgroundImageFix" result="effect1_dropShadow_387_424"/>
<feBlend mode="normal" in="SourceGraphic" in2="effect1_dropShadow_387_424" result="shape"/>
</filter>
<filter id="filter9_d_387_424" x="223.653" y="98.0688" width="180.768" height="169.062" filterUnits="userSpaceOnUse" color-interpolation-filters="sRGB">
<feFlood flood-opacity="0" result="BackgroundImageFix"/>
<feColorMatrix in="SourceAlpha" type="matrix" values="0 0 0 0 0 0 0 0 0 0 0 0 0 0 0 0 0 0 127 0" result="hardAlpha"/>
<feOffset dx="-6" dy="11"/>
<feGaussianBlur stdDeviation="8.5"/>
<feComposite in2="hardAlpha" operator="out"/>
<feColorMatrix type="matrix" values="0 0 0 0 0 0 0 0 0 0 0 0 0 0 0 0 0 0 0.2 0"/>
<feBlend mode="normal" in2="BackgroundImageFix" result="effect1_dropShadow_387_424"/>
<feBlend mode="normal" in="SourceGraphic" in2="effect1_dropShadow_387_424" result="shape"/>
</filter>
<linearGradient id="paint0_linear_387_424" x1="326.918" y1="416.508" x2="396.735" y2="383.087" gradientUnits="userSpaceOnUse">
<stop stop-color="#A48FF5"/>
<stop offset="1" stop-color="#F3A38D"/>
</linearGradient>
<linearGradient id="paint1_linear_387_424" x1="438.163" y1="392.599" x2="507.98" y2="359.178" gradientUnits="userSpaceOnUse">
<stop stop-color="#A48FF5"/>
<stop offset="1" stop-color="#F3A38D"/>
</linearGradient>
<linearGradient id="paint2_linear_387_424" x1="742.054" y1="323.463" x2="813.26" y2="291.521" gradientUnits="userSpaceOnUse">
<stop stop-color="#A48FF5"/>
<stop offset="1" stop-color="#F3A38D"/>
</linearGradient>
<linearGradient id="paint3_linear_387_424" x1="540.234" y1="369.662" x2="610.051" y2="336.241" gradientUnits="userSpaceOnUse">
<stop stop-color="#A48FF5"/>
<stop offset="1" stop-color="#F3A38D"/>
</linearGradient>
<linearGradient id="paint4_linear_387_424" x1="643.451" y1="346.725" x2="713.268" y2="313.304" gradientUnits="userSpaceOnUse">
<stop stop-color="#A48FF5"/>
<stop offset="1" stop-color="#F3A38D"/>
</linearGradient>
</defs>
</svg>
