<svg width="1920" height="531" viewBox="0 0 1920 531" fill="none" xmlns="http://www.w3.org/2000/svg">
<g id="herosvg">
<path id="bg-heroline1" opacity="0.5" d="M1920 451.471C1447.3 539.781 1186.34 568.885 754.682 451.471C521.619 388.077 332.639 393.673 4.29153e-05 451.471" stroke="#B0B0B0" stroke-width="3" stroke-linecap="round" stroke-dasharray="3 10"/>
<path id="bg-heroline2" opacity="0.5" d="M1941 293.462C1463.13 197.254 1199.32 165.548 762.936 293.462C527.324 362.526 336.277 356.429 8.58307e-06 293.462" stroke="#B0B0B0" stroke-opacity="0.3" stroke-width="3" stroke-linecap="round" stroke-dasharray="3 10"/>
<path id="bg-heroline3" opacity="0.2" d="M-30.2589 396.514C310.411 249.8 503.226 211.754 852.447 247.888C1371.57 301.601 1607.47 229.656 1925.46 67.2181" stroke="#B0B0B0" stroke-width="3" stroke-linecap="round" stroke-dasharray="3 10"/>
<rect id="quad-hero2" opacity="0.5" x="866.397" y="309.19" width="92.6193" height="92.6193" rx="10" transform="rotate(-144.493 866.397 309.19)" fill="url(#paint0_linear_540_564)"/>
<rect id="quad-hero1" opacity="0.5" x="1677" y="149.595" width="96.0073" height="96.0073" rx="10" transform="rotate(-46.4597 1677 149.595)" fill="url(#paint1_linear_540_564)"/>
<circle id="bola-hero1" cx="689" cy="436" r="30" fill="url(#paint2_linear_540_564)"/>
<circle id="bola-hero2" cx="66.6396" cy="353.64" r="15" transform="rotate(78.7425 66.6396 353.64)" fill="url(#paint3_linear_540_564)"/>
</g>
<defs>
<linearGradient id="paint0_linear_540_564" x1="866.397" y1="309.19" x2="959.016" y2="401.809" gradientUnits="userSpaceOnUse">
<stop stop-color="#D9D9D9" stop-opacity="0.3"/>
<stop offset="1" stop-color="#8D8D8D"/>
</linearGradient>
<linearGradient id="paint1_linear_540_564" x1="1677" y1="149.595" x2="1773.01" y2="245.602" gradientUnits="userSpaceOnUse">
<stop stop-color="#D9D9D9" stop-opacity="0"/>
<stop offset="1" stop-color="#8D8D8D"/>
</linearGradient>
<linearGradient id="paint2_linear_540_564" x1="659" y1="435.032" x2="719" y2="435.032" gradientUnits="userSpaceOnUse">
<stop stop-color="#A48FF5"/>
<stop offset="0.581178" stop-color="#F3A38D" stop-opacity="0.51"/>
<stop offset="1" stop-color="#F3A38D" stop-opacity="0"/>
</linearGradient>
<linearGradient id="paint3_linear_540_564" x1="51.6396" y1="353.156" x2="81.6396" y2="353.156" gradientUnits="userSpaceOnUse">
<stop stop-color="#A48FF5"/>
<stop offset="0.581178" stop-color="#F3A38D" stop-opacity="0.51"/>
<stop offset="1" stop-color="#F3A38D" stop-opacity="0"/>
</linearGradient>
</defs>
</svg>
