<svg width="1920" height="553" viewBox="0 0 1920 553" fill="none" xmlns="http://www.w3.org/2000/svg">
<g id="herosvg">
<path id="bg-heroline1" opacity="0.5" d="M1955 459.605C1473.68 563.71 1207.97 598.019 768.439 459.605C531.127 384.871 338.703 391.468 -3.40939e-05 459.605" stroke="#B0B0B0" stroke-width="3" stroke-linecap="round" stroke-dasharray="3 10"/>
<path id="bg-heroline2" opacity="0.2" d="M-37.6821 397.764C304.336 250.822 497.887 212.653 848.374 248.574C1369.38 301.969 1606.2 229.87 1925.46 67.2181" stroke="#B0B0B0" stroke-width="3" stroke-linecap="round" stroke-dasharray="3 10"/>
<rect id="quad-hero2" opacity="0.5" x="866.397" y="309.19" width="92.6193" height="92.6193" rx="10" transform="rotate(-144.493 866.397 309.19)" fill="url(#paint0_linear_540_564)"/>
<rect id="quad-hero1" opacity="0.5" x="1677" y="149.595" width="96.0073" height="96.0073" rx="10" transform="rotate(-46.4597 1677 149.595)" fill="url(#paint1_linear_540_564)"/>
<circle id="bola-hero1" cx="689" cy="436" r="30" fill="url(#paint2_linear_540_564)"/>
<circle id="bola-hero2" cx="66.6396" cy="353.64" r="15" transform="rotate(78.7425 66.6396 353.64)" fill="url(#paint3_linear_540_564)"/>
</g>
<defs>
<linearGradient id="paint0_linear_540_564" x1="866.397" y1="309.19" x2="959.016" y2="401.809" gradientUnits="userSpaceOnUse">
<stop stop-color="#D9D9D9" stop-opacity="0.3"/>
<stop offset="1" stop-color="#8D8D8D"/>
</linearGradient>
<linearGradient id="paint1_linear_540_564" x1="1677" y1="149.595" x2="1773.01" y2="245.602" gradientUnits="userSpaceOnUse">
<stop stop-color="#D9D9D9" stop-opacity="0"/>
<stop offset="1" stop-color="#8D8D8D"/>
</linearGradient>
<linearGradient id="paint2_linear_540_564" x1="659" y1="435.032" x2="719" y2="435.032" gradientUnits="userSpaceOnUse">
<stop stop-color="#A48FF5"/>
<stop offset="0.581178" stop-color="#F3A38D" stop-opacity="0.51"/>
<stop offset="1" stop-color="#F3A38D" stop-opacity="0"/>
</linearGradient>
<linearGradient id="paint3_linear_540_564" x1="51.6396" y1="353.156" x2="81.6396" y2="353.156" gradientUnits="userSpaceOnUse">
<stop stop-color="#A48FF5"/>
<stop offset="0.581178" stop-color="#F3A38D" stop-opacity="0.51"/>
<stop offset="1" stop-color="#F3A38D" stop-opacity="0"/>
</linearGradient>
</defs>
</svg>
