<svg width="1056" height="688" viewBox="0 0 1056 688" fill="none" xmlns="http://www.w3.org/2000/svg">
<g filter="url(#filter0_d_387_392)">
<path d="M791.441 20.6883H502.869V14.7406H372.02V20.6883H82.2584C79.695 20.6883 77.1567 21.1932 74.7885 22.1742C72.4202 23.1551 70.2684 24.5929 68.4558 26.4055C66.6433 28.2181 65.2055 30.3699 64.2245 32.7381C63.2435 35.1064 62.7386 37.6447 62.7386 40.208V435.352C62.7386 440.529 64.7952 445.493 68.4558 449.154C72.1165 452.815 77.0814 454.871 82.2584 454.871H791.441C796.618 454.871 801.583 452.815 805.244 449.154C808.904 445.493 810.961 440.529 810.961 435.352V40.208C810.961 37.6447 810.456 35.1064 809.475 32.7381C808.494 30.3699 807.056 28.2181 805.244 26.4055C803.431 24.5929 801.279 23.1551 798.911 22.1742C796.543 21.1932 794.005 20.6883 791.441 20.6883V20.6883Z" fill="#404040"/>
<path d="M784.791 55.1852H88.9084V447.734H784.791V55.1852Z" fill="#889CFB"/>
<path d="M436.255 44.4793C440.197 44.4793 443.392 41.2839 443.392 37.3421C443.392 33.4003 440.197 30.2048 436.255 30.2048C432.313 30.2048 429.118 33.4003 429.118 37.3421C429.118 41.2839 432.313 44.4793 436.255 44.4793Z" fill="#889CFB"/>
<path opacity="0.1" d="M585.781 447.735H88.9087V55.1856L585.781 447.735Z" fill="black"/>
<path d="M443.165 75H416V102.165H443.165V75Z" fill="#F2F2F2"/>
<path d="M455.778 114.778H422.791V81.7912H455.778V114.778ZM424.226 113.344H454.344V83.2255H424.226V113.344Z" fill="#404040"/>
<path d="M830.5 440.597H762.586V435.704C762.586 435.576 762.561 435.45 762.512 435.332C762.464 435.215 762.392 435.108 762.302 435.018C762.212 434.928 762.105 434.856 761.987 434.807C761.87 434.759 761.743 434.734 761.616 434.734H738.331C738.204 434.734 738.078 434.759 737.96 434.807C737.842 434.856 737.735 434.928 737.645 435.018C737.555 435.108 737.484 435.215 737.435 435.332C737.386 435.45 737.361 435.576 737.361 435.704V440.597H722.808V435.704C722.808 435.576 722.783 435.45 722.734 435.332C722.686 435.215 722.614 435.108 722.524 435.018C722.434 434.928 722.327 434.856 722.209 434.807C722.092 434.759 721.965 434.734 721.838 434.734H698.553C698.426 434.734 698.3 434.759 698.182 434.807C698.064 434.856 697.957 434.928 697.867 435.018C697.777 435.108 697.706 435.215 697.657 435.332C697.608 435.45 697.583 435.576 697.583 435.704V440.597H683.03V435.704C683.03 435.576 683.005 435.45 682.956 435.332C682.908 435.215 682.836 435.108 682.746 435.018C682.656 434.928 682.549 434.856 682.431 434.807C682.314 434.759 682.187 434.734 682.06 434.734H658.775C658.648 434.734 658.522 434.759 658.404 434.807C658.286 434.856 658.179 434.928 658.089 435.018C657.999 435.108 657.928 435.215 657.879 435.332C657.83 435.45 657.805 435.576 657.805 435.704V440.597H643.252V435.704C643.252 435.576 643.227 435.45 643.178 435.332C643.13 435.215 643.058 435.108 642.968 435.018C642.878 434.928 642.771 434.856 642.653 434.807C642.536 434.759 642.41 434.734 642.282 434.734H618.997C618.87 434.734 618.744 434.759 618.626 434.807C618.508 434.856 618.401 434.928 618.311 435.018C618.221 435.108 618.15 435.215 618.101 435.332C618.052 435.45 618.027 435.576 618.027 435.704V440.597H603.474V435.704C603.474 435.576 603.449 435.45 603.4 435.332C603.352 435.215 603.28 435.108 603.19 435.018C603.1 434.928 602.993 434.856 602.875 434.807C602.758 434.759 602.632 434.734 602.504 434.734H579.219C579.092 434.734 578.966 434.759 578.848 434.807C578.73 434.856 578.624 434.928 578.533 435.018C578.443 435.108 578.372 435.215 578.323 435.332C578.274 435.45 578.249 435.576 578.249 435.704V440.597H563.696V435.704C563.696 435.576 563.671 435.45 563.622 435.332C563.574 435.215 563.502 435.108 563.412 435.018C563.322 434.928 563.215 434.856 563.097 434.807C562.98 434.759 562.854 434.734 562.726 434.734H539.441C539.314 434.734 539.188 434.759 539.07 434.807C538.952 434.856 538.846 434.928 538.755 435.018C538.665 435.108 538.594 435.215 538.545 435.332C538.496 435.45 538.471 435.576 538.471 435.704V440.597H523.918V435.704C523.918 435.576 523.893 435.45 523.844 435.332C523.796 435.215 523.724 435.108 523.634 435.018C523.544 434.928 523.437 434.856 523.319 434.807C523.202 434.759 523.076 434.734 522.948 434.734H340.552C340.424 434.734 340.298 434.759 340.18 434.807C340.063 434.856 339.956 434.928 339.866 435.018C339.775 435.108 339.704 435.215 339.655 435.332C339.607 435.45 339.581 435.576 339.581 435.704V440.597H325.029V435.704C325.029 435.576 325.003 435.45 324.955 435.332C324.906 435.215 324.834 435.108 324.744 435.018C324.654 434.928 324.547 434.856 324.43 434.807C324.312 434.759 324.186 434.734 324.058 434.734H300.774C300.646 434.734 300.52 434.759 300.402 434.807C300.285 434.856 300.178 434.928 300.088 435.018C299.998 435.108 299.926 435.215 299.877 435.332C299.829 435.45 299.803 435.576 299.803 435.704V440.597H285.251V435.704C285.251 435.576 285.225 435.45 285.177 435.332C285.128 435.215 285.056 435.108 284.966 435.018C284.876 434.928 284.769 434.856 284.652 434.807C284.534 434.759 284.408 434.734 284.28 434.734H260.996C260.868 434.734 260.742 434.759 260.624 434.807C260.507 434.856 260.4 434.928 260.31 435.018C260.22 435.108 260.148 435.215 260.099 435.332C260.051 435.45 260.025 435.576 260.025 435.704V440.597H245.473V435.704C245.473 435.576 245.447 435.45 245.399 435.332C245.35 435.215 245.279 435.108 245.188 435.018C245.098 434.928 244.991 434.856 244.874 434.807C244.756 434.759 244.63 434.734 244.502 434.734H221.218C221.09 434.734 220.964 434.759 220.846 434.807C220.729 434.856 220.622 434.928 220.532 435.018C220.442 435.108 220.37 435.215 220.321 435.332C220.273 435.45 220.248 435.576 220.248 435.704V440.597H205.695V435.704C205.695 435.576 205.67 435.45 205.621 435.332C205.572 435.215 205.501 435.108 205.41 435.018C205.32 434.928 205.213 434.856 205.096 434.807C204.978 434.759 204.852 434.734 204.724 434.734H181.44C181.312 434.734 181.186 434.759 181.068 434.807C180.951 434.856 180.844 434.928 180.754 435.018C180.664 435.108 180.592 435.215 180.543 435.332C180.495 435.45 180.47 435.576 180.47 435.704V440.597H165.917V435.704C165.917 435.576 165.892 435.45 165.843 435.332C165.794 435.215 165.723 435.108 165.632 435.018C165.542 434.928 165.435 434.856 165.318 434.807C165.2 434.759 165.074 434.734 164.946 434.734H141.662C141.534 434.734 141.408 434.759 141.29 434.807C141.173 434.856 141.066 434.928 140.976 435.018C140.886 435.108 140.814 435.215 140.765 435.332C140.717 435.45 140.692 435.576 140.692 435.704V440.597H126.139V435.704C126.139 435.576 126.114 435.45 126.065 435.332C126.016 435.215 125.945 435.108 125.855 435.018C125.764 434.928 125.657 434.856 125.54 434.807C125.422 434.759 125.296 434.734 125.168 434.734H101.884C101.756 434.734 101.63 434.759 101.513 434.807C101.395 434.856 101.288 434.928 101.198 435.018C101.108 435.108 101.036 435.215 100.987 435.332C100.939 435.45 100.914 435.576 100.914 435.704V440.597H56.2847C50.1092 440.597 44.1866 443.05 39.8199 447.417C35.4532 451.784 33 457.706 33 463.881V474.41C33 480.586 35.4532 486.508 39.8199 490.875C44.1867 495.242 50.1092 497.695 56.2847 497.695H830.5C836.675 497.695 842.598 495.242 846.965 490.875C851.331 486.508 853.784 480.586 853.784 474.41V463.881C853.784 457.706 851.331 451.784 846.965 447.417C842.598 443.05 836.675 440.597 830.5 440.597Z" fill="#404040"/>
<path d="M966 36.0959H683.163V38.3142H966V36.0959Z" fill="#404040"/>
<path d="M946.955 24.4017H915.898V55.4584H946.955V24.4017Z" fill="#889CFB"/>
<path d="M965.81 37.7117H928.099V0H965.81V37.7117ZM929.738 36.0721H964.171V1.63964H929.738V36.0721Z" fill="#404040"/>
<g filter="url(#filter1_d_387_392)">
<rect x="263" y="255" width="148" height="98" rx="20" fill="#FAF8F5"/>
</g>
<g filter="url(#filter2_d_387_392)">
<rect x="283" y="275" width="100" height="12" rx="6" fill="#B0B0B0"/>
</g>
<g filter="url(#filter3_d_387_392)">
<rect x="285" y="297" width="71" height="13" rx="6.5" fill="#B0B0B0"/>
</g>
<g filter="url(#filter4_d_387_392)">
<rect x="285" y="320" width="138" height="13" rx="6.5" fill="#B0B0B0"/>
</g>
</g>
<g filter="url(#filter5_d_387_392)">
<path d="M885.86 296.875H883.481V231.714C883.481 226.761 882.506 221.857 880.61 217.281C878.715 212.706 875.937 208.548 872.435 205.046C868.933 201.544 864.775 198.766 860.2 196.871C855.624 194.975 850.72 194 845.767 194H707.714C702.761 194 697.857 194.975 693.281 196.871C688.706 198.766 684.548 201.544 681.046 205.046C677.544 208.548 674.766 212.706 672.871 217.281C670.975 221.857 670 226.761 670 231.714V589.195C670 594.148 670.975 599.052 672.871 603.628C674.766 608.203 677.544 612.361 681.046 615.863C684.548 619.365 688.706 622.143 693.281 624.038C697.857 625.933 702.761 626.909 707.714 626.909H845.767C850.72 626.909 855.624 625.933 860.2 624.038C864.775 622.143 868.933 619.365 872.435 615.863C875.937 612.361 878.715 608.203 880.61 603.628C882.506 599.052 883.481 594.148 883.481 589.195V343.258H885.86V296.875Z" fill="#404040"/>
<path d="M875.45 233.93V590.89C875.451 598.36 872.485 605.525 867.204 610.807C861.923 616.09 854.76 619.059 847.29 619.06H708.57C701.1 619.059 693.937 616.09 688.656 610.807C683.375 605.525 680.409 598.36 680.41 590.89V233.93C680.411 226.462 683.378 219.3 688.659 214.019C693.94 208.738 701.102 205.771 708.57 205.77H725.4C724.572 207.802 724.256 210.006 724.48 212.189C724.704 214.371 725.462 216.465 726.686 218.286C727.91 220.106 729.563 221.598 731.499 222.63C733.436 223.661 735.596 224.201 737.79 224.2H816.88C819.074 224.201 821.234 223.661 823.171 222.63C825.107 221.598 826.76 220.106 827.984 218.286C829.208 216.465 829.966 214.371 830.19 212.189C830.414 210.006 830.098 207.802 829.27 205.77H847.29C854.758 205.771 861.92 208.738 867.201 214.019C872.482 219.3 875.449 226.462 875.45 233.93V233.93Z" fill="#889CFB"/>
<path d="M733.492 252H709V276.492H733.492V252Z" fill="#F2F2F2"/>
<path d="M718.376 258.125V287.865H748.116V258.125H718.376ZM746.826 286.575H719.666V259.415H746.826V286.575Z" fill="#404040"/>
<path opacity="0.1" d="M875.45 552.77V590.89C875.451 598.36 872.485 605.525 867.204 610.807C861.923 616.09 854.76 619.059 847.29 619.06H708.57C701.1 619.059 693.937 616.09 688.656 610.807C683.375 605.525 680.409 598.36 680.41 590.89V398.68L797.28 491.01L799.28 492.59L821.02 509.76L823.05 511.37L875.45 552.77Z" fill="black"/>
<g filter="url(#filter6_d_387_392)">
<rect x="718" y="324" width="138" height="13" rx="6.5" fill="#404040"/>
</g>
<g filter="url(#filter7_d_387_392)">
<rect x="761" y="351" width="95" height="13" rx="6.5" fill="#404040"/>
</g>
<rect x="710" y="449" width="133" height="50" rx="15" fill="#FAF8F5"/>
<g filter="url(#filter8_d_387_392)">
<rect x="727" y="459" width="100" height="10" rx="5" fill="#B0B0B0"/>
</g>
<g filter="url(#filter9_d_387_392)">
<rect x="741" y="479" width="71.4286" height="10" rx="5" fill="#B0B0B0"/>
</g>
</g>
<g filter="url(#filter10_d_387_392)">
<rect x="12" y="153" width="111" height="111" rx="20" fill="#FAF8F5"/>
</g>
<g filter="url(#filter11_d_387_392)">
<mask id="path-26-inside-1_387_392" fill="white">
<path d="M99.2143 208.5C99.2143 226.015 85.0153 240.214 67.5 240.214C49.9847 240.214 35.7857 226.015 35.7857 208.5C35.7857 190.985 49.9847 176.786 67.5 176.786C85.0153 176.786 99.2143 190.985 99.2143 208.5ZM47.5655 208.5C47.5655 219.51 56.4905 228.435 67.5 228.435C78.5095 228.435 87.4345 219.51 87.4345 208.5C87.4345 197.49 78.5095 188.566 67.5 188.566C56.4905 188.566 47.5655 197.49 47.5655 208.5Z"/>
</mask>
<path d="M99.2143 208.5C99.2143 226.015 85.0153 240.214 67.5 240.214C49.9847 240.214 35.7857 226.015 35.7857 208.5C35.7857 190.985 49.9847 176.786 67.5 176.786C85.0153 176.786 99.2143 190.985 99.2143 208.5ZM47.5655 208.5C47.5655 219.51 56.4905 228.435 67.5 228.435C78.5095 228.435 87.4345 219.51 87.4345 208.5C87.4345 197.49 78.5095 188.566 67.5 188.566C56.4905 188.566 47.5655 197.49 47.5655 208.5Z" stroke="#707070" stroke-width="20" stroke-linecap="round" stroke-linejoin="round" shape-rendering="crispEdges" mask="url(#path-26-inside-1_387_392)"/>
</g>
<g filter="url(#filter12_d_387_392)">
<mask id="path-27-inside-2_387_392" fill="white">
<path d="M71.6776 239.938C77.2793 239.194 82.5804 236.966 87.0324 233.486C91.4844 230.005 94.9256 225.399 97 220.142C99.0745 214.886 99.7068 209.171 98.8316 203.588C97.9564 198.005 95.6054 192.758 92.0219 188.388C88.4383 184.019 83.7525 180.687 78.449 178.736C73.1455 176.785 67.4171 176.286 61.8564 177.292C56.2957 178.298 51.1046 180.771 46.8203 184.455C42.536 188.14 39.314 192.903 37.4877 198.25L48.6353 202.057C49.7832 198.696 51.8085 195.702 54.5014 193.386C57.1944 191.07 60.4573 189.516 63.9526 188.884C67.4479 188.252 71.0486 188.565 74.3822 189.791C77.7157 191.017 80.6611 193.112 82.9136 195.859C85.1661 198.605 86.6438 201.903 87.1939 205.413C87.7441 208.922 87.3466 212.514 86.0427 215.818C84.7388 219.122 82.5757 222.018 79.7774 224.205C76.979 226.393 73.6469 227.793 70.1259 228.261L71.6776 239.938Z"/>
</mask>
<path d="M71.6776 239.938C77.2793 239.194 82.5804 236.966 87.0324 233.486C91.4844 230.005 94.9256 225.399 97 220.142C99.0745 214.886 99.7068 209.171 98.8316 203.588C97.9564 198.005 95.6054 192.758 92.0219 188.388C88.4383 184.019 83.7525 180.687 78.449 178.736C73.1455 176.785 67.4171 176.286 61.8564 177.292C56.2957 178.298 51.1046 180.771 46.8203 184.455C42.536 188.14 39.314 192.903 37.4877 198.25L48.6353 202.057C49.7832 198.696 51.8085 195.702 54.5014 193.386C57.1944 191.07 60.4573 189.516 63.9526 188.884C67.4479 188.252 71.0486 188.565 74.3822 189.791C77.7157 191.017 80.6611 193.112 82.9136 195.859C85.1661 198.605 86.6438 201.903 87.1939 205.413C87.7441 208.922 87.3466 212.514 86.0427 215.818C84.7388 219.122 82.5757 222.018 79.7774 224.205C76.979 226.393 73.6469 227.793 70.1259 228.261L71.6776 239.938Z" stroke="#B0B0B0" stroke-width="20" stroke-linecap="round" stroke-linejoin="round" shape-rendering="crispEdges" mask="url(#path-27-inside-2_387_392)"/>
</g>
<defs>
<filter id="filter0_d_387_392" x="3" y="0" width="1053" height="617.695" filterUnits="userSpaceOnUse" color-interpolation-filters="sRGB">
<feFlood flood-opacity="0" result="BackgroundImageFix"/>
<feColorMatrix in="SourceAlpha" type="matrix" values="0 0 0 0 0 0 0 0 0 0 0 0 0 0 0 0 0 0 127 0" result="hardAlpha"/>
<feOffset dx="30" dy="60"/>
<feGaussianBlur stdDeviation="30"/>
<feComposite in2="hardAlpha" operator="out"/>
<feColorMatrix type="matrix" values="0 0 0 0 0 0 0 0 0 0 0 0 0 0 0 0 0 0 0.25 0"/>
<feBlend mode="normal" in2="BackgroundImageFix" result="effect1_dropShadow_387_392"/>
<feBlend mode="normal" in="SourceGraphic" in2="effect1_dropShadow_387_392" result="shape"/>
</filter>
<filter id="filter1_d_387_392" x="251" y="245" width="172" height="122" filterUnits="userSpaceOnUse" color-interpolation-filters="sRGB">
<feFlood flood-opacity="0" result="BackgroundImageFix"/>
<feColorMatrix in="SourceAlpha" type="matrix" values="0 0 0 0 0 0 0 0 0 0 0 0 0 0 0 0 0 0 127 0" result="hardAlpha"/>
<feMorphology radius="2" operator="dilate" in="SourceAlpha" result="effect1_dropShadow_387_392"/>
<feOffset dy="2"/>
<feGaussianBlur stdDeviation="5"/>
<feComposite in2="hardAlpha" operator="out"/>
<feColorMatrix type="matrix" values="0 0 0 0 0 0 0 0 0 0 0 0 0 0 0 0 0 0 0.15 0"/>
<feBlend mode="normal" in2="BackgroundImageFix" result="effect1_dropShadow_387_392"/>
<feBlend mode="normal" in="SourceGraphic" in2="effect1_dropShadow_387_392" result="shape"/>
</filter>
<filter id="filter2_d_387_392" x="278" y="272" width="110" height="22" filterUnits="userSpaceOnUse" color-interpolation-filters="sRGB">
<feFlood flood-opacity="0" result="BackgroundImageFix"/>
<feColorMatrix in="SourceAlpha" type="matrix" values="0 0 0 0 0 0 0 0 0 0 0 0 0 0 0 0 0 0 127 0" result="hardAlpha"/>
<feOffset dy="2"/>
<feGaussianBlur stdDeviation="2.5"/>
<feComposite in2="hardAlpha" operator="out"/>
<feColorMatrix type="matrix" values="0 0 0 0 0 0 0 0 0 0 0 0 0 0 0 0 0 0 0.15 0"/>
<feBlend mode="normal" in2="BackgroundImageFix" result="effect1_dropShadow_387_392"/>
<feBlend mode="normal" in="SourceGraphic" in2="effect1_dropShadow_387_392" result="shape"/>
</filter>
<filter id="filter3_d_387_392" x="280" y="294" width="81" height="23" filterUnits="userSpaceOnUse" color-interpolation-filters="sRGB">
<feFlood flood-opacity="0" result="BackgroundImageFix"/>
<feColorMatrix in="SourceAlpha" type="matrix" values="0 0 0 0 0 0 0 0 0 0 0 0 0 0 0 0 0 0 127 0" result="hardAlpha"/>
<feOffset dy="2"/>
<feGaussianBlur stdDeviation="2.5"/>
<feComposite in2="hardAlpha" operator="out"/>
<feColorMatrix type="matrix" values="0 0 0 0 0 0 0 0 0 0 0 0 0 0 0 0 0 0 0.15 0"/>
<feBlend mode="normal" in2="BackgroundImageFix" result="effect1_dropShadow_387_392"/>
<feBlend mode="normal" in="SourceGraphic" in2="effect1_dropShadow_387_392" result="shape"/>
</filter>
<filter id="filter4_d_387_392" x="280" y="317" width="148" height="23" filterUnits="userSpaceOnUse" color-interpolation-filters="sRGB">
<feFlood flood-opacity="0" result="BackgroundImageFix"/>
<feColorMatrix in="SourceAlpha" type="matrix" values="0 0 0 0 0 0 0 0 0 0 0 0 0 0 0 0 0 0 127 0" result="hardAlpha"/>
<feOffset dy="2"/>
<feGaussianBlur stdDeviation="2.5"/>
<feComposite in2="hardAlpha" operator="out"/>
<feColorMatrix type="matrix" values="0 0 0 0 0 0 0 0 0 0 0 0 0 0 0 0 0 0 0.15 0"/>
<feBlend mode="normal" in2="BackgroundImageFix" result="effect1_dropShadow_387_392"/>
<feBlend mode="normal" in="SourceGraphic" in2="effect1_dropShadow_387_392" result="shape"/>
</filter>
<filter id="filter5_d_387_392" x="649" y="175" width="295.86" height="512.909" filterUnits="userSpaceOnUse" color-interpolation-filters="sRGB">
<feFlood flood-opacity="0" result="BackgroundImageFix"/>
<feColorMatrix in="SourceAlpha" type="matrix" values="0 0 0 0 0 0 0 0 0 0 0 0 0 0 0 0 0 0 127 0" result="hardAlpha"/>
<feOffset dx="19" dy="21"/>
<feGaussianBlur stdDeviation="20"/>
<feComposite in2="hardAlpha" operator="out"/>
<feColorMatrix type="matrix" values="0 0 0 0 0 0 0 0 0 0 0 0 0 0 0 0 0 0 0.25 0"/>
<feBlend mode="normal" in2="BackgroundImageFix" result="effect1_dropShadow_387_392"/>
<feBlend mode="normal" in="SourceGraphic" in2="effect1_dropShadow_387_392" result="shape"/>
</filter>
<filter id="filter6_d_387_392" x="713" y="321" width="148" height="23" filterUnits="userSpaceOnUse" color-interpolation-filters="sRGB">
<feFlood flood-opacity="0" result="BackgroundImageFix"/>
<feColorMatrix in="SourceAlpha" type="matrix" values="0 0 0 0 0 0 0 0 0 0 0 0 0 0 0 0 0 0 127 0" result="hardAlpha"/>
<feOffset dy="2"/>
<feGaussianBlur stdDeviation="2.5"/>
<feComposite in2="hardAlpha" operator="out"/>
<feColorMatrix type="matrix" values="0 0 0 0 0 0 0 0 0 0 0 0 0 0 0 0 0 0 0.15 0"/>
<feBlend mode="normal" in2="BackgroundImageFix" result="effect1_dropShadow_387_392"/>
<feBlend mode="normal" in="SourceGraphic" in2="effect1_dropShadow_387_392" result="shape"/>
</filter>
<filter id="filter7_d_387_392" x="756" y="348" width="105" height="23" filterUnits="userSpaceOnUse" color-interpolation-filters="sRGB">
<feFlood flood-opacity="0" result="BackgroundImageFix"/>
<feColorMatrix in="SourceAlpha" type="matrix" values="0 0 0 0 0 0 0 0 0 0 0 0 0 0 0 0 0 0 127 0" result="hardAlpha"/>
<feOffset dy="2"/>
<feGaussianBlur stdDeviation="2.5"/>
<feComposite in2="hardAlpha" operator="out"/>
<feColorMatrix type="matrix" values="0 0 0 0 0 0 0 0 0 0 0 0 0 0 0 0 0 0 0.15 0"/>
<feBlend mode="normal" in2="BackgroundImageFix" result="effect1_dropShadow_387_392"/>
<feBlend mode="normal" in="SourceGraphic" in2="effect1_dropShadow_387_392" result="shape"/>
</filter>
<filter id="filter8_d_387_392" x="722" y="456" width="110" height="20" filterUnits="userSpaceOnUse" color-interpolation-filters="sRGB">
<feFlood flood-opacity="0" result="BackgroundImageFix"/>
<feColorMatrix in="SourceAlpha" type="matrix" values="0 0 0 0 0 0 0 0 0 0 0 0 0 0 0 0 0 0 127 0" result="hardAlpha"/>
<feOffset dy="2"/>
<feGaussianBlur stdDeviation="2.5"/>
<feComposite in2="hardAlpha" operator="out"/>
<feColorMatrix type="matrix" values="0 0 0 0 0 0 0 0 0 0 0 0 0 0 0 0 0 0 0.15 0"/>
<feBlend mode="normal" in2="BackgroundImageFix" result="effect1_dropShadow_387_392"/>
<feBlend mode="normal" in="SourceGraphic" in2="effect1_dropShadow_387_392" result="shape"/>
</filter>
<filter id="filter9_d_387_392" x="736" y="476" width="81.4286" height="20" filterUnits="userSpaceOnUse" color-interpolation-filters="sRGB">
<feFlood flood-opacity="0" result="BackgroundImageFix"/>
<feColorMatrix in="SourceAlpha" type="matrix" values="0 0 0 0 0 0 0 0 0 0 0 0 0 0 0 0 0 0 127 0" result="hardAlpha"/>
<feOffset dy="2"/>
<feGaussianBlur stdDeviation="2.5"/>
<feComposite in2="hardAlpha" operator="out"/>
<feColorMatrix type="matrix" values="0 0 0 0 0 0 0 0 0 0 0 0 0 0 0 0 0 0 0.15 0"/>
<feBlend mode="normal" in2="BackgroundImageFix" result="effect1_dropShadow_387_392"/>
<feBlend mode="normal" in="SourceGraphic" in2="effect1_dropShadow_387_392" result="shape"/>
</filter>
<filter id="filter10_d_387_392" x="0" y="143" width="135" height="135" filterUnits="userSpaceOnUse" color-interpolation-filters="sRGB">
<feFlood flood-opacity="0" result="BackgroundImageFix"/>
<feColorMatrix in="SourceAlpha" type="matrix" values="0 0 0 0 0 0 0 0 0 0 0 0 0 0 0 0 0 0 127 0" result="hardAlpha"/>
<feMorphology radius="2" operator="dilate" in="SourceAlpha" result="effect1_dropShadow_387_392"/>
<feOffset dy="2"/>
<feGaussianBlur stdDeviation="5"/>
<feComposite in2="hardAlpha" operator="out"/>
<feColorMatrix type="matrix" values="0 0 0 0 0 0 0 0 0 0 0 0 0 0 0 0 0 0 0.15 0"/>
<feBlend mode="normal" in2="BackgroundImageFix" result="effect1_dropShadow_387_392"/>
<feBlend mode="normal" in="SourceGraphic" in2="effect1_dropShadow_387_392" result="shape"/>
</filter>
<filter id="filter11_d_387_392" x="30.7857" y="173.786" width="73.4286" height="73.4286" filterUnits="userSpaceOnUse" color-interpolation-filters="sRGB">
<feFlood flood-opacity="0" result="BackgroundImageFix"/>
<feColorMatrix in="SourceAlpha" type="matrix" values="0 0 0 0 0 0 0 0 0 0 0 0 0 0 0 0 0 0 127 0" result="hardAlpha"/>
<feOffset dy="2"/>
<feGaussianBlur stdDeviation="2.5"/>
<feComposite in2="hardAlpha" operator="out"/>
<feColorMatrix type="matrix" values="0 0 0 0 0 0 0 0 0 0 0 0 0 0 0 0 0 0 0.15 0"/>
<feBlend mode="normal" in2="BackgroundImageFix" result="effect1_dropShadow_387_392"/>
<feBlend mode="normal" in="SourceGraphic" in2="effect1_dropShadow_387_392" result="shape"/>
</filter>
<filter id="filter12_d_387_392" x="32.4877" y="173.786" width="71.7266" height="73.1522" filterUnits="userSpaceOnUse" color-interpolation-filters="sRGB">
<feFlood flood-opacity="0" result="BackgroundImageFix"/>
<feColorMatrix in="SourceAlpha" type="matrix" values="0 0 0 0 0 0 0 0 0 0 0 0 0 0 0 0 0 0 127 0" result="hardAlpha"/>
<feOffset dy="2"/>
<feGaussianBlur stdDeviation="2.5"/>
<feComposite in2="hardAlpha" operator="out"/>
<feColorMatrix type="matrix" values="0 0 0 0 0 0 0 0 0 0 0 0 0 0 0 0 0 0 0.15 0"/>
<feBlend mode="normal" in2="BackgroundImageFix" result="effect1_dropShadow_387_392"/>
<feBlend mode="normal" in="SourceGraphic" in2="effect1_dropShadow_387_392" result="shape"/>
</filter>
</defs>
</svg>
