<svg width="171" height="25" viewBox="0 0 171 25" fill="none" xmlns="http://www.w3.org/2000/svg">
<path d="M23.512 4.28801C20.696 2.27201 16.024 0.992014 11.736 0.992014C6.55201 0.992014 1.94401 2.91201 1.94401 7.84002C1.94401 16.704 17.656 13.888 17.656 17.952C17.656 19.36 15.8 20 13.432 20C10.04 20 5.52801 18.784 3.41601 16.832L0.76001 21.312C3.48001 23.424 8.34401 24.736 12.888 24.736C18.456 24.736 23.576 22.752 23.576 17.824C23.576 8.89601 7.80001 11.84 7.80001 7.93601C7.80001 6.40001 9.59201 5.72801 11.96 5.72801C14.968 5.72801 18.84 6.84801 20.888 8.64001L23.512 4.28801Z" fill="#404040"/>
<path d="M54.2468 12.8C54.2468 4.80001 47.3668 0.864014 41.5108 0.864014C35.6228 0.864014 28.7428 4.80001 28.7428 12.8C28.7428 20.8 35.6228 24.736 41.5108 24.736C47.3668 24.736 54.2468 20.8 54.2468 12.8ZM48.7428 12.8C48.7428 17.376 44.8388 19.584 41.5108 19.584C38.1508 19.584 34.2468 17.376 34.2468 12.8C34.2468 8.22401 38.1508 5.98401 41.5108 5.98401C44.8388 5.98401 48.7428 8.22401 48.7428 12.8Z" fill="#404040"/>
<path d="M67.083 19.488V1.60001H61.675V24H81.419V19.488H67.083Z" fill="#404040"/>
<path d="M86.9075 24H92.6355L94.2035 20.736H106.748L108.316 24H114.044L103.228 1.28001H97.7555L86.9075 24ZM100.476 7.68001L104.572 16.224H96.3795L100.476 7.68001Z" fill="#404040"/>
<path d="M120.763 24H126.171V15.584H131.323L137.243 24H144.027L137.115 15.136C140.123 14.08 141.627 11.328 141.627 8.60801C141.627 5.08801 139.195 1.60001 134.267 1.60001H120.763V24ZM126.171 6.11201H132.955C135.003 6.11201 136.027 7.36001 136.027 8.60801C136.027 9.85601 135.003 11.104 132.955 11.104H126.171V6.11201Z" fill="#404040"/>
<path d="M145.276 1.60001L155.004 15.008V24H160.412V14.816L151.58 1.60001H145.276ZM159 8L162 12L170.14 1.60001H163.836L159 8Z" fill="#404040"/>
</svg>
