<svg width="149" height="41" viewBox="0 0 149 41" fill="none" xmlns="http://www.w3.org/2000/svg">
<path d="M71.7812 18.7188C71.8125 18.7812 71.8281 18.8438 71.8281 18.9062C71.8385 18.9688 71.8438 19.0417 71.8438 19.125C71.8438 19.4583 71.6667 19.8073 71.3125 20.1719C70.9688 20.5365 70.4219 20.8698 69.6719 21.1719C69.5156 21.2344 69.375 21.2656 69.25 21.2656C69.0938 21.2656 68.9583 21.224 68.8438 21.1406C68.7396 21.0469 68.6875 20.9531 68.6875 20.8594C68.6875 20.7969 68.724 20.724 68.7969 20.6406C68.8802 20.5573 68.9635 20.474 69.0469 20.3906C69.1406 20.3073 69.224 20.2292 69.2969 20.1562C69.3802 20.0833 69.4219 20.026 69.4219 19.9844C69.4219 19.901 69.3542 19.8594 69.2188 19.8594C69.0104 19.8594 68.7448 19.9219 68.4219 20.0469C68.099 20.1615 67.7552 20.3177 67.3906 20.5156C67.0365 20.7031 66.6719 20.9115 66.2969 21.1406C65.9323 21.3594 65.6042 21.5781 65.3125 21.7969C65.0208 22.0052 64.7812 22.1927 64.5938 22.3594C64.4167 22.526 64.3281 22.6458 64.3281 22.7188C64.3281 22.7604 64.3698 22.7812 64.4531 22.7812H64.9062C65.1875 22.7812 65.5469 22.7969 65.9844 22.8281C66.4323 22.8594 66.901 22.9219 67.3906 23.0156C67.8802 23.099 68.3698 23.224 68.8594 23.3906C69.3594 23.5469 69.8021 23.7604 70.1875 24.0312C70.5833 24.3021 70.9062 24.6302 71.1562 25.0156C71.4062 25.401 71.5312 25.8594 71.5312 26.3906C71.5312 26.6615 71.4844 26.9531 71.3906 27.2656C71.3073 27.5677 71.151 27.8802 70.9219 28.2031C70.7031 28.5156 70.401 28.8385 70.0156 29.1719C69.6302 29.4948 69.1406 29.8177 68.5469 30.1406C67.651 30.6198 66.8125 30.974 66.0312 31.2031C65.2604 31.4323 64.5625 31.5469 63.9375 31.5469C63.125 31.5469 62.4844 31.3646 62.0156 31C61.5469 30.6354 61.3125 30.1146 61.3125 29.4375C61.3125 28.9375 61.4062 28.5104 61.5938 28.1562C61.7917 27.8021 62.0208 27.5104 62.2812 27.2812C62.5417 27.0417 62.8021 26.8698 63.0625 26.7656C63.3229 26.651 63.5208 26.5885 63.6562 26.5781C63.7188 26.5781 63.7708 26.5729 63.8125 26.5625C63.8646 26.5521 63.9167 26.5469 63.9688 26.5469C64.0625 26.5469 64.1094 26.6042 64.1094 26.7188V26.875C64.1094 26.9375 64.125 26.9948 64.1562 27.0469C64.1875 27.0885 64.2031 27.1354 64.2031 27.1875C64.2031 27.25 64.125 27.3438 63.9688 27.4688C63.8229 27.5938 63.6615 27.7396 63.4844 27.9062C63.3073 28.0729 63.1406 28.25 62.9844 28.4375C62.8385 28.625 62.7656 28.8073 62.7656 28.9844C62.7656 29.1927 62.9323 29.2969 63.2656 29.2969C63.6823 29.2969 64.1198 29.2188 64.5781 29.0625C65.0469 28.8958 65.5 28.6875 65.9375 28.4375C66.3854 28.1875 66.8073 27.9062 67.2031 27.5938C67.6094 27.2708 67.9635 26.9583 68.2656 26.6562C68.5677 26.3542 68.8073 26.0729 68.9844 25.8125C69.1615 25.5417 69.25 25.3281 69.25 25.1719C69.25 24.9844 69.1406 24.8333 68.9219 24.7188C68.7135 24.6042 68.4219 24.5104 68.0469 24.4375C67.6823 24.3646 67.2552 24.3177 66.7656 24.2969C66.276 24.2656 65.7604 24.25 65.2188 24.25C64.6562 24.25 64.1875 24.276 63.8125 24.3281C63.4479 24.3802 63.224 24.4062 63.1406 24.4062C63.0781 24.4062 62.974 24.401 62.8281 24.3906C62.6927 24.3698 62.5521 24.3229 62.4062 24.25C62.2708 24.1667 62.151 24.0469 62.0469 23.8906C61.9427 23.7344 61.8906 23.5104 61.8906 23.2188C61.8906 23.0208 61.9323 22.7969 62.0156 22.5469C62.1094 22.2969 62.2656 22.0312 62.4844 21.75C62.7135 21.4583 63.0208 21.1458 63.4062 20.8125C63.8021 20.4792 64.3021 20.1302 64.9062 19.7656C65.5417 19.3802 66.1354 19.0677 66.6875 18.8281C67.25 18.5781 67.7552 18.3854 68.2031 18.25C68.6615 18.1146 69.0625 18.026 69.4062 17.9844C69.75 17.9323 70.0208 17.9062 70.2188 17.9062C70.6875 17.9062 71.0365 17.9688 71.2656 18.0938C71.4948 18.2083 71.6667 18.4167 71.7812 18.7188ZM87.8875 24.4062C87.8875 25.5 87.726 26.4844 87.4031 27.3594C87.0906 28.2344 86.6583 28.9792 86.1062 29.5938C85.5646 30.2083 84.9344 30.6823 84.2156 31.0156C83.4969 31.349 82.7365 31.5156 81.9344 31.5156C81.601 31.5156 81.2365 31.474 80.8406 31.3906C80.4448 31.3177 80.049 31.1927 79.6531 31.0156C79.2573 30.8385 78.8719 30.6042 78.4969 30.3125C78.1219 30.0208 77.7885 29.6615 77.4969 29.2344C77.2052 28.8073 76.9708 28.3073 76.7937 27.7344C76.6271 27.1615 76.549 26.5 76.5594 25.75C76.5594 24.8958 76.6635 24.1198 76.8719 23.4219C77.0802 22.7135 77.3458 22.0833 77.6687 21.5312C78.0021 20.9688 78.3771 20.4844 78.7937 20.0781C79.2104 19.6719 79.6271 19.3333 80.0437 19.0625C80.4604 18.7812 80.8615 18.5729 81.2469 18.4375C81.6323 18.3021 81.9656 18.224 82.2469 18.2031C82.3927 18.1927 82.4552 18.2083 82.4344 18.25C82.424 18.2917 82.3875 18.3385 82.325 18.3906C82.2625 18.4427 82.2052 18.4948 82.1531 18.5469C82.1115 18.599 82.1323 18.6302 82.2156 18.6406C82.2885 18.6615 82.3458 18.6823 82.3875 18.7031C82.4396 18.724 82.4917 18.75 82.5437 18.7812L82.6687 18.6406C82.7417 18.5885 82.8094 18.5625 82.8719 18.5625C82.9448 18.5625 83.0073 18.5729 83.0594 18.5938C83.1115 18.6042 83.1531 18.6094 83.1844 18.6094C83.2156 18.6094 83.2365 18.5781 83.2469 18.5156C83.2677 18.401 83.3042 18.3385 83.3562 18.3281C83.4187 18.3073 83.5542 18.2969 83.7625 18.2969C83.8875 18.2969 84.075 18.3333 84.325 18.4062C84.5854 18.4792 84.8667 18.6042 85.1687 18.7812C85.4812 18.9583 85.7937 19.1979 86.1062 19.5C86.4292 19.7917 86.7208 20.1667 86.9812 20.625C87.2521 21.0729 87.4708 21.6094 87.6375 22.2344C87.8042 22.8594 87.8875 23.5833 87.8875 24.4062ZM82.2469 19.8281C81.8823 20.0469 81.5229 20.3438 81.1687 20.7188C80.8146 21.0938 80.4917 21.526 80.2 22.0156C79.9187 22.5052 79.6896 23.0521 79.5125 23.6562C79.3354 24.2604 79.2469 24.8958 79.2469 25.5625C79.2469 26.2812 79.3094 26.9323 79.4344 27.5156C79.5698 28.099 79.7625 28.599 80.0125 29.0156C80.2625 29.4219 80.5646 29.7396 80.9187 29.9688C81.2833 30.1875 81.6948 30.2969 82.1531 30.2969C82.5594 30.2969 82.9604 30.1823 83.3562 29.9531C83.7625 29.724 84.1219 29.3802 84.4344 28.9219C84.7469 28.4635 84.9969 27.8958 85.1844 27.2188C85.3823 26.5417 85.4812 25.7552 85.4812 24.8594C85.4812 23.9531 85.3615 23.1927 85.1219 22.5781C84.8823 21.9635 84.6115 21.4688 84.3094 21.0938C84.0177 20.7083 83.7365 20.4375 83.4656 20.2812C83.1948 20.1146 83.0281 20.0312 82.9656 20.0312C82.8198 20.0312 82.7052 20.0312 82.6219 20.0312C82.549 20.0312 82.424 19.9635 82.2469 19.8281ZM96.4312 10.1406C96.4312 10.2865 96.4208 10.5729 96.4 11C96.3792 11.4271 96.3531 11.9427 96.3219 12.5469C96.2906 13.1406 96.2542 13.7969 96.2125 14.5156C96.1812 15.224 96.1448 15.9375 96.1031 16.6562C96.0615 17.3646 96.025 18.0521 95.9937 18.7188C95.9625 19.3854 95.9417 19.9688 95.9312 20.4688C95.9104 20.7708 95.8948 21.1042 95.8844 21.4688C95.8844 21.8333 95.8844 22.224 95.8844 22.6406C95.8844 23.1927 95.8844 23.7708 95.8844 24.375C95.8948 24.9688 95.9052 25.5573 95.9156 26.1406C95.926 26.724 95.9365 27.2865 95.9469 27.8281C95.9677 28.3594 95.9833 28.8385 95.9937 29.2656C96.0042 29.6927 96.0094 30.0521 96.0094 30.3438C96.0198 30.625 96.025 30.8021 96.025 30.875C96.025 31.0208 95.999 31.1302 95.9469 31.2031C95.9052 31.2865 95.8479 31.3385 95.775 31.3594C95.7125 31.3906 95.6448 31.3958 95.5719 31.375C95.499 31.3646 95.4365 31.3438 95.3844 31.3125C95.3219 31.2812 95.2698 31.2448 95.2281 31.2031C95.1969 31.1615 95.1708 31.1302 95.15 31.1094C95.1292 31.0885 95.1083 31.0833 95.0875 31.0938C95.0771 31.1042 95.0667 31.1458 95.0562 31.2188C95.025 31.4896 94.9625 31.6927 94.8687 31.8281C94.7854 31.9635 94.6917 32.0521 94.5875 32.0938C94.4937 32.1458 94.4052 32.1615 94.3219 32.1406C94.2385 32.1198 94.1865 32.0833 94.1656 32.0312C94.1448 31.9792 94.1083 31.9479 94.0562 31.9375C94.0146 31.9271 93.9677 31.9167 93.9156 31.9062C93.8635 31.9062 93.8115 31.8906 93.7594 31.8594C93.7177 31.8385 93.6917 31.7865 93.6812 31.7031C93.5979 31.349 93.5458 30.901 93.525 30.3594C93.5042 29.8073 93.4937 29.1875 93.4937 28.5C93.4937 27.9062 93.499 27.2656 93.5094 26.5781C93.5198 25.8906 93.525 25.1875 93.525 24.4688C93.525 24.0521 93.525 23.6406 93.525 23.2344C93.525 22.8177 93.5146 22.3958 93.4937 21.9688V20.9844C93.4937 20.1406 93.5146 19.2969 93.5562 18.4531C93.5979 17.599 93.65 16.7812 93.7125 16C93.775 15.2188 93.8427 14.4844 93.9156 13.7969C93.9885 13.1094 94.051 12.5 94.1031 11.9688C94.1552 11.4375 94.1969 11.0052 94.2281 10.6719C94.2594 10.3385 94.2698 10.1302 94.2594 10.0469C94.249 9.97396 94.2542 9.92188 94.275 9.89062C94.3062 9.85938 94.3427 9.84375 94.3844 9.84375C94.4365 9.83333 94.4885 9.82812 94.5406 9.82812C94.5927 9.81771 94.6396 9.80208 94.6812 9.78125C94.7542 9.73958 94.8115 9.72917 94.8531 9.75C94.9052 9.76042 94.9469 9.78125 94.9781 9.8125C95.0094 9.84375 95.0354 9.88021 95.0562 9.92188C95.0875 9.95312 95.1292 9.96875 95.1812 9.96875C95.2437 9.95833 95.2906 9.94271 95.3219 9.92188C95.3635 9.89062 95.3948 9.86458 95.4156 9.84375C95.4469 9.8125 95.4729 9.78646 95.4937 9.76562C95.525 9.74479 95.5615 9.73958 95.6031 9.75C95.6865 9.77083 95.7646 9.78646 95.8375 9.79688C95.9208 9.79688 95.9625 9.78125 95.9625 9.75C95.9833 9.66667 96.0146 9.63021 96.0562 9.64062C96.0979 9.64062 96.15 9.66667 96.2125 9.71875C96.275 9.77083 96.3271 9.82812 96.3687 9.89062C96.4104 9.94271 96.4312 10.026 96.4312 10.1406ZM111.319 21.8438C111.329 22.2083 111.298 22.6562 111.225 23.1875C111.152 23.7083 111.069 24.2708 110.975 24.875C110.881 25.4688 110.793 26.0781 110.709 26.7031C110.626 27.3281 110.584 27.9167 110.584 28.4688C110.584 28.8333 110.61 29.1823 110.662 29.5156C110.715 29.8385 110.803 30.1198 110.928 30.3594C111.001 30.4948 111.037 30.6146 111.037 30.7188C111.048 30.8229 111.043 30.9167 111.022 31C111.001 31.0729 110.98 31.1354 110.959 31.1875C110.939 31.25 110.939 31.3073 110.959 31.3594C110.98 31.4115 110.975 31.4688 110.944 31.5312C110.912 31.6042 110.866 31.6667 110.803 31.7188C110.741 31.7812 110.668 31.8229 110.584 31.8438C110.511 31.875 110.444 31.8698 110.381 31.8281C110.267 31.7552 110.173 31.7135 110.1 31.7031C110.037 31.6927 109.98 31.6927 109.928 31.7031C109.886 31.724 109.845 31.7448 109.803 31.7656C109.772 31.7865 109.73 31.7865 109.678 31.7656C109.501 31.6719 109.308 31.5625 109.1 31.4375C108.892 31.3125 108.756 31.1771 108.694 31.0312C108.652 30.9688 108.61 30.8646 108.569 30.7188C108.537 30.5729 108.506 30.401 108.475 30.2031C108.454 30.0052 108.433 29.7917 108.412 29.5625C108.392 29.3333 108.376 29.1094 108.366 28.8906C108.022 29.5365 107.652 30.0729 107.256 30.5C106.871 30.9271 106.48 31.2656 106.084 31.5156C105.699 31.776 105.314 31.9583 104.928 32.0625C104.553 32.1667 104.209 32.2188 103.897 32.2188C103.574 32.2188 103.287 32.1771 103.037 32.0938C102.798 32.0104 102.61 31.9115 102.475 31.7969C101.965 31.2865 101.6 30.875 101.381 30.5625C101.173 30.2396 101.079 29.9792 101.1 29.7812C101.152 29.1146 101.314 28.5 101.584 27.9375C101.855 27.375 102.194 26.8594 102.6 26.3906C103.006 25.9115 103.459 25.4844 103.959 25.1094C104.47 24.724 104.985 24.3854 105.506 24.0938C106.037 23.7917 106.558 23.5417 107.069 23.3438C107.579 23.1354 108.043 22.9688 108.459 22.8438C108.439 22.2812 108.412 21.7917 108.381 21.375C108.36 20.9479 108.324 20.6354 108.272 20.4375C108.116 19.7917 107.876 19.3125 107.553 19C107.23 18.6771 106.84 18.5156 106.381 18.5156C106.09 18.5156 105.793 18.625 105.491 18.8438C105.199 19.0625 104.933 19.3594 104.694 19.7344C104.454 20.1094 104.256 20.5417 104.1 21.0312C103.954 21.5208 103.876 22.0365 103.866 22.5781C103.866 22.7135 103.871 22.8438 103.881 22.9688C103.892 23.0938 103.907 23.224 103.928 23.3594C103.939 23.4323 103.912 23.4844 103.85 23.5156C103.798 23.5469 103.73 23.5729 103.647 23.5938C103.564 23.6042 103.475 23.6146 103.381 23.625C103.287 23.6354 103.209 23.651 103.147 23.6719C103.095 23.6927 103.053 23.7083 103.022 23.7188C102.991 23.7188 102.959 23.7135 102.928 23.7031C102.897 23.6823 102.855 23.651 102.803 23.6094C102.761 23.5677 102.699 23.5156 102.616 23.4531C102.532 23.3906 102.444 23.3385 102.35 23.2969C102.267 23.2552 102.189 23.2188 102.116 23.1875C102.053 23.1562 101.996 23.1302 101.944 23.1094C101.902 23.0781 101.881 23.0417 101.881 23C101.881 22.3542 102.022 21.6875 102.303 21C102.595 20.3125 102.98 19.6875 103.459 19.125C103.949 18.5521 104.511 18.0833 105.147 17.7188C105.793 17.3542 106.475 17.1719 107.194 17.1719C107.777 17.1719 108.282 17.2604 108.709 17.4375C109.136 17.6146 109.501 17.8438 109.803 18.125C110.105 18.4062 110.35 18.7188 110.537 19.0625C110.735 19.4062 110.886 19.7552 110.991 20.1094C111.105 20.4531 111.183 20.7812 111.225 21.0938C111.277 21.3958 111.308 21.6458 111.319 21.8438ZM108.491 24.625C108.178 24.7396 107.834 24.8906 107.459 25.0781C107.084 25.2656 106.704 25.4896 106.319 25.75C105.933 26 105.548 26.2917 105.162 26.625C104.777 26.9583 104.418 27.3281 104.084 27.7344C103.689 28.2031 103.402 28.6198 103.225 28.9844C103.048 29.349 102.939 29.6615 102.897 29.9219C102.855 30.1719 102.866 30.3698 102.928 30.5156C102.991 30.6615 103.064 30.75 103.147 30.7812C103.47 30.9062 103.803 30.9219 104.147 30.8281C104.501 30.724 104.85 30.5469 105.194 30.2969C105.548 30.0365 105.886 29.7292 106.209 29.375C106.543 29.0104 106.855 28.6406 107.147 28.2656C107.439 27.8802 107.699 27.5052 107.928 27.1406C108.157 26.7656 108.345 26.4427 108.491 26.1719V24.625ZM124.628 19.7656C124.618 20.0677 124.586 20.3698 124.534 20.6719C124.493 20.9635 124.43 21.2448 124.347 21.5156C124.264 21.776 124.159 22.0104 124.034 22.2188C123.92 22.4271 123.79 22.5938 123.644 22.7188C123.519 22.8229 123.42 22.875 123.347 22.875C123.274 22.875 123.211 22.8542 123.159 22.8125C123.118 22.7708 123.081 22.724 123.05 22.6719C123.019 22.6198 122.977 22.5885 122.925 22.5781C122.883 22.5677 122.826 22.5729 122.753 22.5938C122.691 22.6042 122.623 22.6042 122.55 22.5938C122.487 22.5833 122.425 22.5469 122.362 22.4844C122.31 22.4115 122.274 22.2865 122.253 22.1094C122.232 21.9115 122.237 21.6562 122.269 21.3438C122.31 21.0208 122.331 20.7083 122.331 20.4062C122.331 20.1354 122.3 19.9115 122.237 19.7344C122.185 19.5469 122.086 19.4531 121.941 19.4531C121.868 19.4531 121.737 19.5104 121.55 19.625C121.373 19.7292 121.175 19.9583 120.956 20.3125C120.737 20.6667 120.519 21.1823 120.3 21.8594C120.081 22.526 119.904 23.4167 119.769 24.5312C119.769 25.9688 119.779 27.125 119.8 28C119.821 28.875 119.831 29.5573 119.831 30.0469C119.831 30.4635 119.821 30.7604 119.8 30.9375C119.779 31.1146 119.727 31.2292 119.644 31.2812C119.592 31.3125 119.487 31.349 119.331 31.3906C119.185 31.4427 119.024 31.4896 118.847 31.5312C118.68 31.5729 118.519 31.6094 118.362 31.6406C118.206 31.6719 118.107 31.6823 118.066 31.6719C118.034 31.6615 117.977 31.625 117.894 31.5625C117.81 31.5104 117.722 31.4427 117.628 31.3594C117.545 31.276 117.467 31.1875 117.394 31.0938C117.321 31.0104 117.279 30.9375 117.269 30.875C117.248 30.7708 117.237 30.5365 117.237 30.1719C117.248 29.7969 117.253 29.349 117.253 28.8281C117.264 28.3073 117.274 27.7396 117.284 27.125C117.295 26.5 117.3 25.8802 117.3 25.2656C117.3 24.8698 117.31 24.4323 117.331 23.9531C117.362 23.4635 117.394 22.9688 117.425 22.4688C117.467 21.9688 117.508 21.4792 117.55 21C117.592 20.5208 117.628 20.0938 117.659 19.7188C117.701 19.3333 117.732 19.0156 117.753 18.7656C117.784 18.5052 117.805 18.349 117.816 18.2969C117.826 18.2135 117.862 18.1823 117.925 18.2031C117.998 18.224 118.071 18.2604 118.144 18.3125C118.227 18.3646 118.3 18.4115 118.362 18.4531C118.425 18.4948 118.467 18.4948 118.487 18.4531C118.508 18.3594 118.586 18.349 118.722 18.4219C118.857 18.4844 118.982 18.5573 119.097 18.6406C119.139 18.6927 119.185 18.7396 119.237 18.7812C119.3 18.8125 119.357 18.8594 119.409 18.9219C119.461 18.974 119.503 19.0469 119.534 19.1406C119.576 19.2344 119.597 19.3594 119.597 19.5156C119.597 19.6615 119.607 19.8802 119.628 20.1719C119.649 20.4635 119.675 20.8073 119.706 21.2031C119.821 20.8281 119.956 20.4323 120.112 20.0156C120.279 19.599 120.477 19.2188 120.706 18.875C120.935 18.5208 121.206 18.2292 121.519 18C121.831 17.7708 122.206 17.6562 122.644 17.6562C122.883 17.6562 123.123 17.7031 123.362 17.7969C123.602 17.8906 123.816 18.0312 124.003 18.2188C124.201 18.3958 124.357 18.6146 124.472 18.875C124.586 19.1354 124.639 19.4323 124.628 19.7656ZM132.969 10.6094C132.979 10.8177 132.969 11.0521 132.938 11.3125C132.917 11.5625 132.875 11.8073 132.812 12.0469C132.76 12.2865 132.682 12.5 132.578 12.6875C132.484 12.875 132.37 13.0052 132.234 13.0781C131.891 13.2552 131.589 13.3438 131.328 13.3438C131.12 13.3438 130.938 13.2969 130.781 13.2031C130.635 13.099 130.49 12.9844 130.344 12.8594C130.135 12.6927 129.958 12.474 129.812 12.2031C129.677 11.9323 129.609 11.6719 129.609 11.4219C129.609 11.224 129.641 10.9844 129.703 10.7031C129.776 10.4115 129.865 10.1302 129.969 9.85938C130.073 9.58854 130.182 9.34375 130.297 9.125C130.422 8.89583 130.542 8.73958 130.656 8.65625C130.833 8.51042 130.995 8.43229 131.141 8.42188C131.297 8.40104 131.422 8.40625 131.516 8.4375C131.745 8.48958 131.948 8.55729 132.125 8.64062C132.302 8.71354 132.448 8.83333 132.562 9C132.688 9.15625 132.781 9.36458 132.844 9.625C132.906 9.88542 132.948 10.2135 132.969 10.6094ZM131.688 17.5938C131.74 17.6458 131.776 17.8177 131.797 18.1094C131.828 18.401 131.844 18.7812 131.844 19.25C131.844 19.5625 131.839 19.901 131.828 20.2656C131.818 20.6302 131.802 21.0052 131.781 21.3906C131.771 21.776 131.755 22.1667 131.734 22.5625C131.714 22.9479 131.698 23.3177 131.688 23.6719C131.656 24.2552 131.635 24.7969 131.625 25.2969C131.625 25.7865 131.625 26.2604 131.625 26.7188C131.625 27.3229 131.63 27.875 131.641 28.375C131.651 28.875 131.656 29.2917 131.656 29.625C131.656 29.9896 131.641 30.2708 131.609 30.4688C131.589 30.6562 131.536 30.7604 131.453 30.7812C131.359 30.8021 131.281 30.849 131.219 30.9219C131.156 30.9844 131.099 31.0469 131.047 31.1094C130.995 31.1719 130.932 31.224 130.859 31.2656C130.797 31.3177 130.719 31.3333 130.625 31.3125C130.573 31.3021 130.484 31.2552 130.359 31.1719C130.234 31.0885 130.099 30.9896 129.953 30.875C129.818 30.75 129.688 30.6094 129.562 30.4531C129.438 30.2969 129.354 30.1354 129.312 29.9688C129.292 29.8854 129.271 29.7188 129.25 29.4688C129.24 29.2188 129.229 28.9167 129.219 28.5625C129.208 28.2083 129.198 27.8177 129.188 27.3906C129.177 26.9531 129.167 26.5156 129.156 26.0781C129.156 25.6302 129.156 25.1927 129.156 24.7656C129.156 24.3385 129.156 23.9531 129.156 23.6094C129.156 23.0781 129.172 22.5365 129.203 21.9844C129.245 21.4323 129.286 20.9167 129.328 20.4375C129.38 19.9583 129.427 19.5417 129.469 19.1875C129.521 18.8229 129.557 18.5677 129.578 18.4219C129.62 18.1719 129.661 17.9792 129.703 17.8438C129.755 17.6979 129.807 17.5938 129.859 17.5312C129.922 17.4688 129.979 17.4323 130.031 17.4219C130.094 17.401 130.156 17.3854 130.219 17.375C130.344 17.3542 130.484 17.349 130.641 17.3594C130.807 17.3698 130.964 17.3854 131.109 17.4062C131.255 17.4271 131.38 17.4583 131.484 17.5C131.599 17.5312 131.667 17.5625 131.688 17.5938ZM146.981 21.8438C146.992 22.2083 146.96 22.6562 146.887 23.1875C146.815 23.7083 146.731 24.2708 146.637 24.875C146.544 25.4688 146.455 26.0781 146.372 26.7031C146.289 27.3281 146.247 27.9167 146.247 28.4688C146.247 28.8333 146.273 29.1823 146.325 29.5156C146.377 29.8385 146.466 30.1198 146.591 30.3594C146.664 30.4948 146.7 30.6146 146.7 30.7188C146.71 30.8229 146.705 30.9167 146.684 31C146.664 31.0729 146.643 31.1354 146.622 31.1875C146.601 31.25 146.601 31.3073 146.622 31.3594C146.643 31.4115 146.637 31.4688 146.606 31.5312C146.575 31.6042 146.528 31.6667 146.466 31.7188C146.403 31.7812 146.33 31.8229 146.247 31.8438C146.174 31.875 146.106 31.8698 146.044 31.8281C145.929 31.7552 145.835 31.7135 145.762 31.7031C145.7 31.6927 145.643 31.6927 145.591 31.7031C145.549 31.724 145.507 31.7448 145.466 31.7656C145.434 31.7865 145.393 31.7865 145.341 31.7656C145.164 31.6719 144.971 31.5625 144.762 31.4375C144.554 31.3125 144.419 31.1771 144.356 31.0312C144.315 30.9688 144.273 30.8646 144.231 30.7188C144.2 30.5729 144.169 30.401 144.137 30.2031C144.117 30.0052 144.096 29.7917 144.075 29.5625C144.054 29.3333 144.039 29.1094 144.028 28.8906C143.684 29.5365 143.315 30.0729 142.919 30.5C142.533 30.9271 142.143 31.2656 141.747 31.5156C141.361 31.776 140.976 31.9583 140.591 32.0625C140.216 32.1667 139.872 32.2188 139.559 32.2188C139.236 32.2188 138.95 32.1771 138.7 32.0938C138.46 32.0104 138.273 31.9115 138.137 31.7969C137.627 31.2865 137.262 30.875 137.044 30.5625C136.835 30.2396 136.742 29.9792 136.762 29.7812C136.815 29.1146 136.976 28.5 137.247 27.9375C137.518 27.375 137.856 26.8594 138.262 26.3906C138.669 25.9115 139.122 25.4844 139.622 25.1094C140.132 24.724 140.648 24.3854 141.169 24.0938C141.7 23.7917 142.221 23.5417 142.731 23.3438C143.242 23.1354 143.705 22.9688 144.122 22.8438C144.101 22.2812 144.075 21.7917 144.044 21.375C144.023 20.9479 143.986 20.6354 143.934 20.4375C143.778 19.7917 143.539 19.3125 143.216 19C142.893 18.6771 142.502 18.5156 142.044 18.5156C141.752 18.5156 141.455 18.625 141.153 18.8438C140.861 19.0625 140.596 19.3594 140.356 19.7344C140.117 20.1094 139.919 20.5417 139.762 21.0312C139.617 21.5208 139.539 22.0365 139.528 22.5781C139.528 22.7135 139.533 22.8438 139.544 22.9688C139.554 23.0938 139.57 23.224 139.591 23.3594C139.601 23.4323 139.575 23.4844 139.512 23.5156C139.46 23.5469 139.393 23.5729 139.309 23.5938C139.226 23.6042 139.137 23.6146 139.044 23.625C138.95 23.6354 138.872 23.651 138.809 23.6719C138.757 23.6927 138.716 23.7083 138.684 23.7188C138.653 23.7188 138.622 23.7135 138.591 23.7031C138.559 23.6823 138.518 23.651 138.466 23.6094C138.424 23.5677 138.361 23.5156 138.278 23.4531C138.195 23.3906 138.106 23.3385 138.012 23.2969C137.929 23.2552 137.851 23.2188 137.778 23.1875C137.716 23.1562 137.658 23.1302 137.606 23.1094C137.565 23.0781 137.544 23.0417 137.544 23C137.544 22.3542 137.684 21.6875 137.966 21C138.257 20.3125 138.643 19.6875 139.122 19.125C139.611 18.5521 140.174 18.0833 140.809 17.7188C141.455 17.3542 142.137 17.1719 142.856 17.1719C143.44 17.1719 143.945 17.2604 144.372 17.4375C144.799 17.6146 145.164 17.8438 145.466 18.125C145.768 18.4062 146.012 18.7188 146.2 19.0625C146.398 19.4062 146.549 19.7552 146.653 20.1094C146.768 20.4531 146.846 20.7812 146.887 21.0938C146.94 21.3958 146.971 21.6458 146.981 21.8438ZM144.153 24.625C143.841 24.7396 143.497 24.8906 143.122 25.0781C142.747 25.2656 142.367 25.4896 141.981 25.75C141.596 26 141.21 26.2917 140.825 26.625C140.44 26.9583 140.08 27.3281 139.747 27.7344C139.351 28.2031 139.065 28.6198 138.887 28.9844C138.71 29.349 138.601 29.6615 138.559 29.9219C138.518 30.1719 138.528 30.3698 138.591 30.5156C138.653 30.6615 138.726 30.75 138.809 30.7812C139.132 30.9062 139.466 30.9219 139.809 30.8281C140.164 30.724 140.512 30.5469 140.856 30.2969C141.21 30.0365 141.549 29.7292 141.872 29.375C142.205 29.0104 142.518 28.6406 142.809 28.2656C143.101 27.8802 143.361 27.5052 143.591 27.1406C143.82 26.7656 144.007 26.4427 144.153 26.1719V24.625Z" fill="url(#paint0_linear_472_476)"/>
<mask id="mask0_472_476" style="mask-type:alpha" maskUnits="userSpaceOnUse" x="0" y="6" width="50" height="25">
<rect y="6" width="50" height="24.6575" fill="#EA6B34"/>
</mask>
<g mask="url(#mask0_472_476)">
<path d="M25.3424 21.4109C25.3424 21.4109 24.0582 18.5856 25.3424 16.1883C26.6267 13.7911 25.3424 10.9657 25.3424 10.9657" stroke="#EA6B34" stroke-width="1.71233" stroke-linecap="round"/>
<path d="M21.0617 23.6498C21.0617 23.6498 17.5628 22.7142 17.4681 19.7852C17.3735 16.8563 12.7697 14.6839 12.7697 14.6839" stroke="#EA6B34" stroke-width="1.71233" stroke-linecap="round"/>
<path d="M30.3726 22.5985C30.3726 22.5985 32.3358 18.4014 35.9144 18.3585C39.4929 18.3155 41.4561 14.1184 41.4561 14.1184" stroke="#EA6B34" stroke-width="1.71233" stroke-linecap="round"/>
<path d="M40.662 24.5562L40.8784 23.7279L40.8784 23.7279L40.662 24.5562ZM47.3751 22.4307C47.6625 22.0553 47.5912 21.5179 47.2157 21.2305C46.8403 20.943 46.3029 21.0144 46.0155 21.3898L47.3751 22.4307ZM34.6286 27.2022C35.3084 27.7226 35.3083 27.7228 35.3081 27.7231C35.3081 27.7231 35.3079 27.7233 35.3078 27.7234C35.3077 27.7236 35.3075 27.7238 35.3074 27.7239C35.3073 27.7241 35.3073 27.7241 35.3074 27.7239C35.3077 27.7235 35.3087 27.7223 35.3102 27.7204C35.3133 27.7164 35.3189 27.7093 35.327 27.6993C35.3431 27.6793 35.3688 27.6477 35.4037 27.6066C35.4737 27.5241 35.5799 27.4037 35.7182 27.2601C35.9964 26.9714 36.3968 26.5975 36.8869 26.2513C37.8848 25.5464 39.1281 25.0404 40.4455 25.3846L40.8784 23.7279C38.8562 23.1995 37.0828 24.0165 35.899 24.8527C35.2982 25.277 34.8164 25.7282 34.4852 26.072C34.3188 26.2446 34.1884 26.3922 34.098 26.4988C34.0528 26.5521 34.0174 26.5953 33.9924 26.6265C33.9799 26.642 33.97 26.6546 33.9627 26.6638C33.959 26.6685 33.9561 26.6723 33.9537 26.6753C33.9526 26.6768 33.9516 26.6781 33.9508 26.6792C33.9504 26.6797 33.95 26.6802 33.9497 26.6806C33.9495 26.6808 33.9493 26.6811 33.9492 26.6812C33.949 26.6815 33.9488 26.6817 34.6286 27.2022ZM40.4455 25.3846C42.4677 25.913 44.2411 25.096 45.4249 24.2598C46.0257 23.8354 46.5075 23.3842 46.8387 23.0405C47.0051 22.8679 47.1355 22.7202 47.2259 22.6137C47.2711 22.5603 47.3065 22.5171 47.3315 22.486C47.344 22.4704 47.3539 22.4579 47.3612 22.4486C47.3649 22.444 47.3679 22.4401 47.3702 22.4371C47.3713 22.4357 47.3723 22.4344 47.3731 22.4333C47.3735 22.4328 47.3739 22.4323 47.3742 22.4319C47.3744 22.4316 47.3746 22.4314 47.3747 22.4313C47.3749 22.431 47.3751 22.4307 46.6953 21.9103C46.0155 21.3898 46.0156 21.3896 46.0158 21.3894C46.0159 21.3893 46.016 21.3891 46.0161 21.389C46.0162 21.3888 46.0164 21.3887 46.0165 21.3886C46.0166 21.3883 46.0166 21.3883 46.0165 21.3885C46.0162 21.3889 46.0152 21.3901 46.0137 21.3921C46.0106 21.3961 46.005 21.4032 45.9969 21.4132C45.9808 21.4332 45.9551 21.4647 45.9202 21.5059C45.8502 21.5883 45.744 21.7088 45.6057 21.8524C45.3275 22.1411 44.9271 22.515 44.437 22.8612C43.4391 23.5661 42.1958 24.0721 40.8784 23.7279L40.4455 25.3846Z" fill="#EA6B34"/>
<path d="M41.9976 30.1285L41.8755 30.9759L41.9976 30.1285ZM48.2585 28.8153C48.708 28.6686 49.1913 28.9142 49.3379 29.3638C49.4845 29.8133 49.2389 30.2966 48.7894 30.4432L48.2585 28.8153ZM35.4713 30.6278C35.2058 29.8138 35.206 29.8137 35.2062 29.8137C35.2063 29.8136 35.2065 29.8136 35.2067 29.8135C35.2071 29.8134 35.2075 29.8133 35.2079 29.8131C35.2088 29.8128 35.2099 29.8125 35.2111 29.8121C35.2136 29.8113 35.2169 29.8102 35.2209 29.8089C35.2289 29.8064 35.2399 29.803 35.2537 29.7987C35.2813 29.7901 35.3205 29.7783 35.3704 29.7638C35.4702 29.7347 35.6135 29.6949 35.7949 29.6492C36.1575 29.558 36.6743 29.4432 37.303 29.345C38.5558 29.1493 40.2775 29.0156 42.1197 29.2811L41.8755 30.9759C40.253 30.7421 38.7116 30.8581 37.5673 31.0368C36.9975 31.1258 36.5324 31.2294 36.2126 31.3098C36.0529 31.35 35.9299 31.3843 35.8488 31.4079C35.8082 31.4197 35.7782 31.4288 35.7593 31.4347C35.7499 31.4376 35.7432 31.4397 35.7394 31.4409C35.7375 31.4415 35.7363 31.4419 35.7359 31.442C35.7357 31.4421 35.7356 31.4421 35.7358 31.4421C35.7358 31.442 35.736 31.442 35.7361 31.4419C35.7362 31.4419 35.7364 31.4419 35.7364 31.4418C35.7366 31.4418 35.7367 31.4417 35.4713 30.6278ZM42.1197 29.2811C43.7422 29.5149 45.2837 29.3989 46.4279 29.2202C46.9977 29.1312 47.4628 29.0276 47.7826 28.9471C47.9423 28.907 48.0653 28.8727 48.1464 28.8491C48.187 28.8373 48.217 28.8282 48.2359 28.8223C48.2453 28.8194 48.252 28.8173 48.2558 28.8161C48.2577 28.8155 48.2589 28.8151 48.2593 28.815C48.2595 28.8149 48.2596 28.8149 48.2594 28.8149C48.2594 28.815 48.2592 28.815 48.2591 28.8151C48.259 28.8151 48.2588 28.8151 48.2588 28.8151C48.2586 28.8152 48.2585 28.8153 48.5239 29.6292C48.7894 30.4432 48.7892 30.4433 48.789 30.4433C48.7889 30.4434 48.7887 30.4434 48.7885 30.4435C48.7881 30.4436 48.7877 30.4437 48.7873 30.4439C48.7864 30.4442 48.7853 30.4445 48.7841 30.4449C48.7816 30.4457 48.7783 30.4468 48.7743 30.448C48.7663 30.4506 48.7553 30.454 48.7415 30.4583C48.7139 30.4668 48.6747 30.4787 48.6248 30.4932C48.525 30.5223 48.3817 30.5621 48.2003 30.6077C47.8377 30.6989 47.3209 30.8138 46.6922 30.912C45.4394 31.1077 43.7177 31.2414 41.8755 30.9759L42.1197 29.2811Z" fill="#EA6B34"/>
<path d="M15.5526 27.2753C15.5526 27.2753 11.3935 27.3467 10.307 24.2487C9.22052 21.1507 2.4661 20.4793 2.4661 20.4793" stroke="#EA6B34" stroke-width="1.71233" stroke-linecap="round"/>
<circle cx="25.0856" cy="31.9418" r="10.7021" fill="#EA6B34" stroke="#EA6B34" stroke-width="0.684931"/>
<path d="M14.4366 30.2448C14.4366 30.2448 11.2486 30.7 7.92205 29.6104C4.59546 28.5208 1.40746 28.9761 1.40746 28.9761" stroke="#EA6B34" stroke-width="1.71233" stroke-linecap="round"/>
</g>
<defs>
<linearGradient id="paint0_linear_472_476" x1="27.8478" y1="-5.53843e-05" x2="149.558" y2="15.4385" gradientUnits="userSpaceOnUse">
<stop stop-color="#7F62F4"/>
<stop offset="1" stop-color="#F48162"/>
</linearGradient>
</defs>
</svg>
