<svg width="63" height="63" viewBox="0 0 63 63" fill="none" xmlns="http://www.w3.org/2000/svg">
<path d="M31.5 7.875C32.5873 7.875 33.4688 8.75644 33.4688 9.84375V15.75C33.4688 16.8373 32.5873 17.7188 31.5 17.7188C30.4127 17.7188 29.5312 16.8373 29.5312 15.75V9.84375C29.5312 8.75644 30.4127 7.875 31.5 7.875Z" fill="#EBE7E1"/>
<path d="M14.6957 14.6957C15.4645 13.9268 16.7111 13.9268 17.4799 14.6957L21.0796 18.2954C21.8485 19.0642 21.8485 20.3108 21.0796 21.0796C20.3108 21.8485 19.0642 21.8485 18.2954 21.0796L14.6957 17.4799C13.9268 16.7111 13.9268 15.4645 14.6957 14.6957Z" fill="#EBE7E1"/>
<path d="M7.875 30.7541C7.875 29.6668 8.75644 28.7853 9.84375 28.7853H16.0878C17.1751 28.7853 18.0565 29.6668 18.0565 30.7541C18.0565 31.8414 17.1751 32.7228 16.0878 32.7228H9.84375C8.75644 32.7228 7.875 31.8414 7.875 30.7541Z" fill="#EBE7E1"/>
<path d="M45.2812 31.5C45.2812 30.4127 46.1627 29.5312 47.25 29.5312L53.1562 29.5312C54.2436 29.5312 55.125 30.4127 55.125 31.5C55.125 32.5873 54.2436 33.4688 53.1562 33.4688H47.25C46.1627 33.4688 45.2812 32.5873 45.2812 31.5Z" fill="#EBE7E1"/>
<path d="M48.2515 14.7822C47.6865 14.2173 46.7819 14.1822 46.1748 14.7017L29.7174 28.7853C28.1314 30.1426 28.0374 32.5631 29.5135 34.0392C31.0236 35.5492 33.5113 35.4107 34.8443 33.7422L48.3649 16.8191C48.8513 16.2103 48.8025 15.3333 48.2515 14.7822Z" fill="#EBE7E1"/>
<path fill-rule="evenodd" clip-rule="evenodd" d="M26.2385 62.5625C11.3462 60.0584 0 47.1042 0 31.5C0 14.103 14.103 0 31.5 0C48.897 0 63 14.103 63 31.5C63 37.4708 61.3387 43.0536 58.4532 47.8115C52.9314 56.9163 42.9263 63 31.5002 63C29.7074 63 27.9495 62.8502 26.2385 62.5625ZM7.87117 45.6985C14.8219 41.6768 22.8922 39.375 31.5002 39.375C40.108 39.375 48.1782 41.6768 55.1289 45.6984C57.6261 41.5515 59.0625 36.6935 59.0625 31.5C59.0625 16.2777 46.7224 3.9375 31.5 3.9375C16.2777 3.9375 3.9375 16.2777 3.9375 31.5C3.9375 36.6935 5.37393 41.5516 7.87117 45.6985Z" fill="#EBE7E1"/>
</svg>
