<svg width="81" height="61" viewBox="0 0 81 61" fill="none" xmlns="http://www.w3.org/2000/svg">
<path d="M50.2652 54.773H30.7352C30.1772 54.773 29.8052 54.401 29.8052 53.843V15.713C29.8052 15.155 30.1772 14.783 30.7352 14.783H50.2652C50.8232 14.783 51.1952 15.155 51.1952 15.713V53.843C51.1952 54.308 50.7302 54.773 50.2652 54.773ZM31.5722 52.913H49.2422V16.643H31.5722V52.913Z" fill="#EBE7E1"/>
<path d="M77.6998 60.725H3.29977C1.71877 60.725 0.509766 59.516 0.509766 57.935V3.06502C0.509766 1.48402 1.71877 0.275024 3.29977 0.275024H77.6998C79.2808 0.275024 80.4898 1.48402 80.4898 3.06502V57.935C80.4898 59.516 79.2808 60.725 77.6998 60.725ZM3.29977 2.13502C2.74177 2.13502 2.36977 2.50702 2.36977 3.06502V57.935C2.36977 58.493 2.74177 58.865 3.29977 58.865H77.6998C78.2578 58.865 78.6298 58.493 78.6298 57.935V3.06502C78.6298 2.50702 78.2578 2.13502 77.6998 2.13502H3.29977Z" fill="#EBE7E1"/>
<path d="M78.6298 9.11H1.43977C0.881766 9.11 0.509766 8.738 0.509766 8.18C0.509766 7.622 0.881766 7.25 1.43977 7.25H78.6298C79.1878 7.25 79.5598 7.622 79.5598 8.18C79.5598 8.738 79.1878 9.11 78.6298 9.11Z" fill="#EBE7E1"/>
<path d="M5.53224 6.22702C6.19995 6.22702 6.74124 5.68573 6.74124 5.01802C6.74124 4.35031 6.19995 3.80902 5.53224 3.80902C4.86453 3.80902 4.32324 4.35031 4.32324 5.01802C4.32324 5.68573 4.86453 6.22702 5.53224 6.22702Z" fill="#EBE7E1"/>
<path d="M9.99611 6.22702C10.6638 6.22702 11.2051 5.68573 11.2051 5.01802C11.2051 4.35031 10.6638 3.80902 9.99611 3.80902C9.3284 3.80902 8.78711 4.35031 8.78711 5.01802C8.78711 5.68573 9.3284 6.22702 9.99611 6.22702Z" fill="#EBE7E1"/>
<path d="M14.3672 6.22702C15.0349 6.22702 15.5762 5.68573 15.5762 5.01802C15.5762 4.35031 15.0349 3.80902 14.3672 3.80902C13.6995 3.80902 13.1582 4.35031 13.1582 5.01802C13.1582 5.68573 13.6995 6.22702 14.3672 6.22702Z" fill="#EBE7E1"/>
<path d="M44.2199 35.15H35.8499C35.2919 35.15 34.9199 34.778 34.9199 34.22C34.9199 33.662 35.2919 33.29 35.8499 33.29H44.2199C44.7779 33.29 45.1499 33.662 45.1499 34.22C45.1499 34.778 44.7779 35.15 44.2199 35.15Z" fill="#EBE7E1"/>
<path d="M47.0099 38.87H33.0599C32.5019 38.87 32.1299 38.498 32.1299 37.94C32.1299 37.382 32.5019 37.01 33.0599 37.01H47.0099C47.5679 37.01 47.9399 37.382 47.9399 37.94C47.9399 38.498 47.5679 38.87 47.0099 38.87Z" fill="#EBE7E1"/>
<path d="M46.0801 42.59H33.9901C33.4321 42.59 33.0601 42.218 33.0601 41.66C33.0601 41.102 33.4321 40.73 33.9901 40.73H46.0801C46.6381 40.73 47.0101 41.102 47.0101 41.66C47.0101 42.218 46.6381 42.59 46.0801 42.59Z" fill="#EBE7E1"/>
<path d="M43.2901 47.24H36.7801C36.2221 47.24 35.8501 46.868 35.8501 46.31C35.8501 45.752 36.2221 45.38 36.7801 45.38H43.2901C43.8481 45.38 44.2201 45.752 44.2201 46.31C44.2201 46.868 43.8481 47.24 43.2901 47.24Z" fill="#EBE7E1"/>
<path d="M40.6859 30.779C38.2679 30.779 36.3149 28.826 36.3149 26.408C36.3149 23.99 38.2679 22.037 40.6859 22.037C43.1039 22.037 45.0569 23.99 45.0569 26.408C44.9639 28.826 43.0109 30.779 40.6859 30.779ZM40.6859 23.897C39.2909 23.897 38.1749 25.013 38.1749 26.408C38.1749 27.803 39.2909 28.919 40.6859 28.919C42.0809 28.919 43.1969 27.803 43.1969 26.408C43.1969 25.013 41.9879 23.897 40.6859 23.897Z" fill="#EBE7E1"/>
<path d="M69.2368 51.797H50.7298C50.1718 51.797 49.7998 51.425 49.7998 50.867C49.7998 50.309 50.1718 49.937 50.7298 49.937H68.3998V19.619H50.7298C50.1718 19.619 49.7998 19.247 49.7998 18.689C49.7998 18.131 50.1718 17.759 50.7298 17.759H69.3298C69.8878 17.759 70.2598 18.131 70.2598 18.689V50.867C70.1668 51.425 69.7948 51.797 69.2368 51.797Z" fill="#EBE7E1"/>
<path d="M63.7502 35.15H55.3802C54.8222 35.15 54.4502 34.778 54.4502 34.22C54.4502 33.662 54.8222 33.29 55.3802 33.29H63.7502C64.3082 33.29 64.6802 33.662 64.6802 34.22C64.6802 34.778 64.3082 35.15 63.7502 35.15Z" fill="#EBE7E1"/>
<path d="M66.5402 38.87H52.5902C52.0322 38.87 51.6602 38.498 51.6602 37.94C51.6602 37.382 52.0322 37.01 52.5902 37.01H66.5402C67.0982 37.01 67.4702 37.382 67.4702 37.94C67.4702 38.498 67.0982 38.87 66.5402 38.87Z" fill="#EBE7E1"/>
<path d="M65.6098 42.59H53.5198C52.9618 42.59 52.5898 42.218 52.5898 41.66C52.5898 41.102 52.9618 40.73 53.5198 40.73H65.6098C66.1678 40.73 66.5398 41.102 66.5398 41.66C66.5398 42.218 66.1678 42.59 65.6098 42.59Z" fill="#EBE7E1"/>
<path d="M62.8199 47.24H56.3099C55.7519 47.24 55.3799 46.868 55.3799 46.31C55.3799 45.752 55.7519 45.38 56.3099 45.38H62.8199C63.3779 45.38 63.7499 45.752 63.7499 46.31C63.7499 46.868 63.3779 47.24 62.8199 47.24Z" fill="#EBE7E1"/>
<path d="M60.2162 30.779C57.7982 30.779 55.8452 28.826 55.8452 26.408C55.8452 23.99 57.7982 22.037 60.2162 22.037C62.6342 22.037 64.5872 23.99 64.5872 26.408C64.4942 28.826 62.5412 30.779 60.2162 30.779ZM60.2162 23.897C58.8212 23.897 57.7052 25.013 57.7052 26.408C57.7052 27.803 58.8212 28.919 60.2162 28.919C61.6112 28.919 62.7272 27.803 62.7272 26.408C62.7272 25.013 61.5182 23.897 60.2162 23.897Z" fill="#EBE7E1"/>
<path d="M30.6421 51.797H12.1351C11.5771 51.797 11.2051 51.425 11.2051 50.867V18.689C11.2051 18.131 11.5771 17.759 12.1351 17.759H30.6421C31.2001 17.759 31.5721 18.131 31.5721 18.689C31.5721 19.247 31.2001 19.619 30.6421 19.619H13.0651V49.937H30.6421C31.2001 49.937 31.5721 50.309 31.5721 50.867C31.5721 51.425 31.2001 51.797 30.6421 51.797Z" fill="#EBE7E1"/>
<path d="M24.6898 35.15H17.2498C16.6918 35.15 16.3198 34.778 16.3198 34.22C16.3198 33.662 16.6918 33.29 17.2498 33.29H24.6898C25.2478 33.29 25.6198 33.662 25.6198 34.22C25.6198 34.778 25.2478 35.15 24.6898 35.15Z" fill="#EBE7E1"/>
<path d="M27.4798 38.87H14.4598C13.9018 38.87 13.5298 38.498 13.5298 37.94C13.5298 37.382 13.9018 37.01 14.4598 37.01H27.4798C28.0378 37.01 28.4098 37.382 28.4098 37.94C28.4098 38.498 28.0378 38.87 27.4798 38.87Z" fill="#EBE7E1"/>
<path d="M26.55 42.59H15.39C14.832 42.59 14.46 42.218 14.46 41.66C14.46 41.102 14.832 40.73 15.39 40.73H26.55C27.108 40.73 27.48 41.102 27.48 41.66C27.48 42.218 27.108 42.59 26.55 42.59Z" fill="#EBE7E1"/>
<path d="M24.6898 47.24H17.2498C16.6918 47.24 16.3198 46.868 16.3198 46.31C16.3198 45.752 16.6918 45.38 17.2498 45.38H24.6898C25.2478 45.38 25.6198 45.752 25.6198 46.31C25.6198 46.868 25.2478 47.24 24.6898 47.24Z" fill="#EBE7E1"/>
<path d="M21.2489 30.779C18.8309 30.779 16.8779 28.826 16.8779 26.408C16.8779 23.99 18.8309 22.037 21.2489 22.037C23.6669 22.037 25.6199 23.99 25.6199 26.408C25.5269 28.826 23.5739 30.779 21.2489 30.779ZM21.2489 23.897C19.8539 23.897 18.7379 25.013 18.7379 26.408C18.7379 27.803 19.8539 28.919 21.2489 28.919C22.6439 28.919 23.7599 27.803 23.7599 26.408C23.7599 25.013 22.5509 23.897 21.2489 23.897Z" fill="#EBE7E1"/>
</svg>
