<svg width="64" height="64" viewBox="0 0 64 64" fill="none" xmlns="http://www.w3.org/2000/svg">
<path d="M36.394 25.081L30 22.341V20H33C33.7956 20 34.5587 19.6839 35.1213 19.1213C35.6839 18.5587 36 17.7956 36 17C36 16.2044 35.6839 15.4413 35.1213 14.8787C34.5587 14.3161 33.7956 14 33 14H25C24.2044 14 23.4413 14.3161 22.8787 14.8787C22.3161 15.4413 22 16.2044 22 17C22 17.7956 22.3161 18.5587 22.8787 19.1213C23.4413 19.6839 24.2044 20 25 20H28V22.341L21.8 25H16V44H24V45C24 45.2652 24.1054 45.5196 24.2929 45.7071C24.4804 45.8946 24.7348 46 25 46H28V48H25C24.2044 48 23.4413 48.3161 22.8787 48.8787C22.3161 49.4413 22 50.2044 22 51C22 51.7956 22.3161 52.5587 22.8787 53.1213C23.4413 53.6839 24.2044 54 25 54H33C33.7956 54 34.5587 53.6839 35.1213 53.1213C35.6839 52.5587 36 51.7956 36 51C36 50.2044 35.6839 49.4413 35.1213 48.8787C34.5587 48.3161 33.7956 48 33 48H30V46H33C33.2652 46 33.5196 45.8946 33.7071 45.7071C33.8946 45.5196 34 45.2652 34 45V41C34 40.7348 33.8946 40.4804 33.7071 40.2929C33.5196 40.1054 33.2652 40 33 40H30V38H35C35.2652 38 35.5196 37.8946 35.7071 37.7071C35.8946 37.5196 36 37.2652 36 37V33C36 32.7348 35.8946 32.4804 35.7071 32.2929C35.5196 32.1054 35.2652 32 35 32H30V29.659L36.394 26.919C36.5738 26.8419 36.727 26.7137 36.8347 26.5503C36.9424 26.387 36.9997 26.1956 36.9997 26C36.9997 25.8044 36.9424 25.613 36.8347 25.4497C36.727 25.2863 36.5738 25.1581 36.394 25.081V25.081ZM24 17C24 16.7348 24.1054 16.4804 24.2929 16.2929C24.4804 16.1054 24.7348 16 25 16H33C33.2652 16 33.5196 16.1054 33.7071 16.2929C33.8946 16.4804 34 16.7348 34 17C34 17.2652 33.8946 17.5196 33.7071 17.7071C33.5196 17.8946 33.2652 18 33 18H25C24.7348 18 24.4804 17.8946 24.2929 17.7071C24.1054 17.5196 24 17.2652 24 17ZM33 50C33.2652 50 33.5196 50.1054 33.7071 50.2929C33.8946 50.4804 34 50.7348 34 51C34 51.2652 33.8946 51.5196 33.7071 51.7071C33.5196 51.8946 33.2652 52 33 52H25C24.7348 52 24.4804 51.8946 24.2929 51.7071C24.1054 51.5196 24 51.2652 24 51C24 50.7348 24.1054 50.4804 24.2929 50.2929C24.4804 50.1054 24.7348 50 25 50H33ZM32 42V44H26V42H32ZM34 36H24V34H34V36ZM23 32C22.7348 32 22.4804 32.1054 22.2929 32.2929C22.1054 32.4804 22 32.7348 22 33V37C22 37.2652 22.1054 37.5196 22.2929 37.7071C22.4804 37.8946 22.7348 38 23 38H28V40H25C24.7348 40 24.4804 40.1054 24.2929 40.2929C24.1054 40.4804 24 40.7348 24 41V42H18V27H21.8L28 29.659V32H23ZM29 27.912L24.539 26L29 24.088L33.461 26L29 27.912Z" fill="#EBE7E1"/>
<path d="M58.0001 10C56.9392 10 55.9218 10.4214 55.1716 11.1716C54.4215 11.9217 54.0001 12.9391 54.0001 14V55C53.9984 55.1547 54.0326 55.3077 54.1001 55.447L57.1001 61.447C57.183 61.6134 57.3107 61.7534 57.4688 61.8512C57.6269 61.9491 57.8091 62.0009 57.9951 62.0009C58.181 62.0009 58.3632 61.9491 58.5213 61.8512C58.6794 61.7534 58.8071 61.6134 58.8901 61.447L61.8901 55.447C61.961 55.3086 61.9987 55.1555 62.0001 55V14C62.0001 12.9391 61.5786 11.9217 60.8285 11.1716C60.0783 10.4214 59.0609 10 58.0001 10V10ZM56.0001 22H57.0001V51.586L56.0001 52.586V22ZM58.0001 58.764L56.2171 55.2L58.0001 53.414L59.7831 55.2L58.0001 58.764ZM60.0001 52.586L59.0001 51.586V22H60.0001V52.586ZM60.0001 20H56.0001V18H60.0001V20ZM56.0001 16V14C56.0001 13.4696 56.2108 12.9609 56.5858 12.5858C56.9609 12.2107 57.4696 12 58.0001 12C58.5305 12 59.0392 12.2107 59.4143 12.5858C59.7893 12.9609 60.0001 13.4696 60.0001 14V16H56.0001Z" fill="#EBE7E1"/>
<path d="M51 4H48V3C48 2.73478 47.8946 2.48043 47.7071 2.29289C47.5196 2.10536 47.2652 2 47 2C46.7348 2 46.4804 2.10536 46.2929 2.29289C46.1054 2.48043 46 2.73478 46 3V4H44V3C44 2.73478 43.8946 2.48043 43.7071 2.29289C43.5196 2.10536 43.2652 2 43 2C42.7348 2 42.4804 2.10536 42.2929 2.29289C42.1054 2.48043 42 2.73478 42 3V4H40V3C40 2.73478 39.8946 2.48043 39.7071 2.29289C39.5196 2.10536 39.2652 2 39 2C38.7348 2 38.4804 2.10536 38.2929 2.29289C38.1054 2.48043 38 2.73478 38 3V4H36V3C36 2.73478 35.8946 2.48043 35.7071 2.29289C35.5196 2.10536 35.2652 2 35 2C34.7348 2 34.4804 2.10536 34.2929 2.29289C34.1054 2.48043 34 2.73478 34 3V4H32V3C32 2.73478 31.8946 2.48043 31.7071 2.29289C31.5196 2.10536 31.2652 2 31 2C30.7348 2 30.4804 2.10536 30.2929 2.29289C30.1054 2.48043 30 2.73478 30 3V4H28V3C28 2.73478 27.8946 2.48043 27.7071 2.29289C27.5196 2.10536 27.2652 2 27 2C26.7348 2 26.4804 2.10536 26.2929 2.29289C26.1054 2.48043 26 2.73478 26 3V4H24V3C24 2.73478 23.8946 2.48043 23.7071 2.29289C23.5196 2.10536 23.2652 2 23 2C22.7348 2 22.4804 2.10536 22.2929 2.29289C22.1054 2.48043 22 2.73478 22 3V4H20V3C20 2.73478 19.8946 2.48043 19.7071 2.29289C19.5196 2.10536 19.2652 2 19 2C18.7348 2 18.4804 2.10536 18.2929 2.29289C18.1054 2.48043 18 2.73478 18 3V4H16V3C16 2.73478 15.8946 2.48043 15.7071 2.29289C15.5196 2.10536 15.2652 2 15 2C14.7348 2 14.4804 2.10536 14.2929 2.29289C14.1054 2.48043 14 2.73478 14 3V4H12V3C12 2.73478 11.8946 2.48043 11.7071 2.29289C11.5196 2.10536 11.2652 2 11 2C10.7348 2 10.4804 2.10536 10.2929 2.29289C10.1054 2.48043 10 2.73478 10 3V4H7C6.73478 4 6.48043 4.10536 6.29289 4.29289C6.10536 4.48043 6 4.73478 6 5V8H3C2.73478 8 2.48043 8.10536 2.29289 8.29289C2.10536 8.48043 2 8.73478 2 9V61C2 61.2652 2.10536 61.5196 2.29289 61.7071C2.48043 61.8946 2.73478 62 3 62H45C45.2652 62 45.5196 61.8946 45.7071 61.7071C45.8946 61.5196 46 61.2652 46 61V58H51C51.2652 58 51.5196 57.8946 51.7071 57.7071C51.8946 57.5196 52 57.2652 52 57V5C52 4.73478 51.8946 4.48043 51.7071 4.29289C51.5196 4.10536 51.2652 4 51 4V4ZM8 6H10V7C10 7.26522 10.1054 7.51957 10.2929 7.70711C10.4804 7.89464 10.7348 8 11 8C11.2652 8 11.5196 7.89464 11.7071 7.70711C11.8946 7.51957 12 7.26522 12 7V6H14V7C14 7.26522 14.1054 7.51957 14.2929 7.70711C14.4804 7.89464 14.7348 8 15 8C15.2652 8 15.5196 7.89464 15.7071 7.70711C15.8946 7.51957 16 7.26522 16 7V6H18V7C18 7.26522 18.1054 7.51957 18.2929 7.70711C18.4804 7.89464 18.7348 8 19 8C19.2652 8 19.5196 7.89464 19.7071 7.70711C19.8946 7.51957 20 7.26522 20 7V6H22V7C22 7.26522 22.1054 7.51957 22.2929 7.70711C22.4804 7.89464 22.7348 8 23 8C23.2652 8 23.5196 7.89464 23.7071 7.70711C23.8946 7.51957 24 7.26522 24 7V6H26V7C26 7.26522 26.1054 7.51957 26.2929 7.70711C26.4804 7.89464 26.7348 8 27 8C27.2652 8 27.5196 7.89464 27.7071 7.70711C27.8946 7.51957 28 7.26522 28 7V6H30V7C30 7.26522 30.1054 7.51957 30.2929 7.70711C30.4804 7.89464 30.7348 8 31 8C31.2652 8 31.5196 7.89464 31.7071 7.70711C31.8946 7.51957 32 7.26522 32 7V6H34V7C34 7.26522 34.1054 7.51957 34.2929 7.70711C34.4804 7.89464 34.7348 8 35 8C35.2652 8 35.5196 7.89464 35.7071 7.70711C35.8946 7.51957 36 7.26522 36 7V6H38V7C38 7.26522 38.1054 7.51957 38.2929 7.70711C38.4804 7.89464 38.7348 8 39 8C39.2652 8 39.5196 7.89464 39.7071 7.70711C39.8946 7.51957 40 7.26522 40 7V6H42V7C42 7.26522 42.1054 7.51957 42.2929 7.70711C42.4804 7.89464 42.7348 8 43 8C43.2652 8 43.5196 7.89464 43.7071 7.70711C43.8946 7.51957 44 7.26522 44 7V6H46V7C46 7.26522 46.1054 7.51957 46.2929 7.70711C46.4804 7.89464 46.7348 8 47 8C47.2652 8 47.5196 7.89464 47.7071 7.70711C47.8946 7.51957 48 7.26522 48 7V6H50V10H8V6ZM44 60H4V10H6V57C6 57.2652 6.10536 57.5196 6.29289 57.7071C6.48043 57.8946 6.73478 58 7 58H44V60ZM50 56H8V12H50V56Z" fill="#EBE7E1"/>
</svg>
