<svg width="68" height="68" viewBox="0 0 68 68" fill="none" xmlns="http://www.w3.org/2000/svg">
<path d="M10.8889 19.7778V48.2223" stroke="url(#paint0_linear_357_582)" stroke-width="3"/>
<path d="M56.5186 19.7778V48.2223" stroke="url(#paint1_linear_357_582)" stroke-width="3"/>
<path d="M19.7778 11.4814L48.2223 11.4814" stroke="url(#paint2_linear_357_582)" stroke-width="3"/>
<path d="M19.7778 56.5186H48.2223" stroke="url(#paint3_linear_357_582)" stroke-width="3"/>
<rect x="3.5" y="3.5" width="14.7778" height="14.7778" rx="2.05556" stroke="#7F7F7F" stroke-opacity="0.5" stroke-width="3"/>
<rect x="49.7222" y="49.7222" width="14.7778" height="14.7778" rx="2.05556" stroke="#7F7F7F" stroke-opacity="0.5" stroke-width="3"/>
<rect x="3.5" y="49.7222" width="14.7778" height="14.7778" rx="2.05556" stroke="#7F7F7F" stroke-opacity="0.5" stroke-width="3"/>
<rect x="49.7222" y="3.5" width="14.7778" height="14.7778" rx="2.05556" stroke="#7F7F7F" stroke-opacity="0.5" stroke-width="3"/>
<path fill-rule="evenodd" clip-rule="evenodd" d="M21 38.1875C21 36.8413 22.0913 35.75 23.4375 35.75H25.0625C26.4087 35.75 27.5 36.8413 27.5 38.1875V39.8125C27.5 41.1587 26.4087 42.25 25.0625 42.25H23.4375C22.0913 42.25 21 41.1587 21 39.8125V38.1875ZM23.4375 37.375C22.9888 37.375 22.625 37.7388 22.625 38.1875V39.8125C22.625 40.2612 22.9888 40.625 23.4375 40.625H25.0625C25.5112 40.625 25.875 40.2612 25.875 39.8125V38.1875C25.875 37.7388 25.5112 37.375 25.0625 37.375H23.4375Z" fill="#EBE7E1"/>
<path fill-rule="evenodd" clip-rule="evenodd" d="M40.5 38.1875C40.5 36.8413 41.5913 35.75 42.9375 35.75H44.5625C45.9087 35.75 47 36.8413 47 38.1875V39.8125C47 41.1587 45.9087 42.25 44.5625 42.25H42.9375C41.5913 42.25 40.5 41.1587 40.5 39.8125V38.1875ZM42.9375 37.375C42.4888 37.375 42.125 37.7388 42.125 38.1875V39.8125C42.125 40.2612 42.4888 40.625 42.9375 40.625H44.5625C45.0112 40.625 45.375 40.2612 45.375 39.8125V38.1875C45.375 37.7388 45.0112 37.375 44.5625 37.375H42.9375Z" fill="#EBE7E1"/>
<path fill-rule="evenodd" clip-rule="evenodd" d="M30.75 28.4375C30.75 27.0913 31.8413 26 33.1875 26H34.8125C36.1587 26 37.25 27.0913 37.25 28.4375V30.0625C37.25 31.4087 36.1587 32.5 34.8125 32.5H33.1875C31.8413 32.5 30.75 31.4087 30.75 30.0625V28.4375ZM33.1875 27.625C32.7388 27.625 32.375 27.9888 32.375 28.4375V30.0625C32.375 30.5112 32.7388 30.875 33.1875 30.875H34.8125C35.2612 30.875 35.625 30.5112 35.625 30.0625V28.4375C35.625 27.9888 35.2612 27.625 34.8125 27.625H33.1875Z" fill="#EBE7E1"/>
<path d="M30.75 28.4375H24.0326C23.7516 27.9518 23.2265 27.625 22.625 27.625C21.7275 27.625 21 28.3525 21 29.25C21 30.1475 21.7275 30.875 22.625 30.875C23.2265 30.875 23.7516 30.5482 24.0326 30.0625H28.3683C26.2982 31.3696 24.7138 33.3761 23.9469 35.75H25.0625C25.2632 35.75 25.4582 35.7743 25.6448 35.82C26.5504 33.442 28.442 31.5504 30.82 30.6448C30.7743 30.4582 30.75 30.2632 30.75 30.0625V28.4375Z" fill="#EBE7E1"/>
<path d="M37.18 30.6448C37.2257 30.4582 37.25 30.2632 37.25 30.0625V28.4375H43.9674C44.2484 27.9518 44.7735 27.625 45.375 27.625C46.2725 27.625 47 28.3525 47 29.25C47 30.1475 46.2725 30.875 45.375 30.875C44.7735 30.875 44.2484 30.5482 43.9674 30.0625H39.6317C41.7018 31.3696 43.2862 33.3761 44.0531 35.75H42.9375C42.7368 35.75 42.5418 35.7743 42.3552 35.82C41.4496 33.442 39.558 31.5504 37.18 30.6448Z" fill="#EBE7E1"/>
<defs>
<linearGradient id="paint0_linear_357_582" x1="11.3889" y1="19.7778" x2="11.3889" y2="45.9112" gradientUnits="userSpaceOnUse">
<stop stop-color="#EBE7E1"/>
<stop offset="1" stop-color="#EBE7E1" stop-opacity="0"/>
</linearGradient>
<linearGradient id="paint1_linear_357_582" x1="57.0186" y1="21.7334" x2="57.0186" y2="48.2223" gradientUnits="userSpaceOnUse">
<stop stop-color="#EBE7E1" stop-opacity="0"/>
<stop offset="1" stop-color="#EBE7E1"/>
</linearGradient>
<linearGradient id="paint2_linear_357_582" x1="22.2667" y1="10.6314" x2="22.3268" y2="12.1406" gradientUnits="userSpaceOnUse">
<stop stop-color="#EBE7E1"/>
<stop offset="1" stop-color="#EBE7E1" stop-opacity="0"/>
</linearGradient>
<linearGradient id="paint3_linear_357_582" x1="22.2667" y1="55.6686" x2="22.3268" y2="57.1777" gradientUnits="userSpaceOnUse">
<stop stop-color="#EBE7E1"/>
<stop offset="1" stop-color="#EBE7E1" stop-opacity="0"/>
</linearGradient>
</defs>
</svg>
