<svg width="64" height="64" viewBox="0 0 64 64" fill="none" xmlns="http://www.w3.org/2000/svg">
<path d="M8 5H6V7H8V5Z" fill="#EBE7E1"/>
<path d="M12 5H10V7H12V5Z" fill="#EBE7E1"/>
<path d="M16 5H14V7H16V5Z" fill="#EBE7E1"/>
<path d="M20 14H12V16H20V14Z" fill="#EBE7E1"/>
<path d="M18 30H16V32H18V30Z" fill="#EBE7E1"/>
<path d="M16 18H12V20H16V18Z" fill="#EBE7E1"/>
<path d="M10 26H8V28H10V26Z" fill="#EBE7E1"/>
<path d="M10 14H8V16H10V14Z" fill="#EBE7E1"/>
<path d="M10 18H8V20H10V18Z" fill="#EBE7E1"/>
<path d="M25 22H8V24H25V22Z" fill="#EBE7E1"/>
<path d="M24 26H12V28H24V26Z" fill="#EBE7E1"/>
<path d="M57 18H54V5C54 4.20435 53.6839 3.44129 53.1213 2.87868C52.5587 2.31607 51.7956 2 51 2H5C4.20435 2 3.44129 2.31607 2.87868 2.87868C2.31607 3.44129 2 4.20435 2 5V49C2 49.7956 2.31607 50.5587 2.87868 51.1213C3.44129 51.6839 4.20435 52 5 52H34V57C34.0016 58.3256 34.5289 59.5964 35.4662 60.5338C36.4036 61.4711 37.6744 61.9984 39 62H57C58.3256 61.9984 59.5964 61.4711 60.5338 60.5338C61.4711 59.5964 61.9984 58.3256 62 57V23C61.9984 21.6744 61.4711 20.4036 60.5338 19.4662C59.5964 18.5289 58.3256 18.0016 57 18V18ZM60 23V24H36V23C36 22.2044 36.3161 21.4413 36.8787 20.8787C37.4413 20.3161 38.2044 20 39 20H57C57.7956 20 58.5587 20.3161 59.1213 20.8787C59.6839 21.4413 60 22.2044 60 23ZM4 5C4 4.73478 4.10536 4.48043 4.29289 4.29289C4.48043 4.10536 4.73478 4 5 4H51C51.2652 4 51.5196 4.10536 51.7071 4.29289C51.8946 4.48043 52 4.73478 52 5V8H4V5ZM5 50C4.73478 50 4.48043 49.8946 4.29289 49.7071C4.10536 49.5196 4 49.2652 4 49V10H52V18H39C37.6744 18.0016 36.4036 18.5289 35.4662 19.4662C34.5289 20.4036 34.0016 21.6744 34 23V32C34 32.2652 34.1054 32.5196 34.2929 32.7071C34.4804 32.8946 34.7348 33 35 33C35.2652 33 35.5196 32.8946 35.7071 32.7071C35.8946 32.5196 36 32.2652 36 32V26H60V54H36V48.125C36 47.8598 35.8946 47.6054 35.7071 47.4179C35.5196 47.2304 35.2652 47.125 35 47.125C34.7348 47.125 34.4804 47.2304 34.2929 47.4179C34.1054 47.6054 34 47.8598 34 48.125V50H5ZM57 60H39C38.2044 60 37.4413 59.6839 36.8787 59.1213C36.3161 58.5587 36 57.7956 36 57V56H60V57C60 57.7956 59.6839 58.5587 59.1213 59.1213C58.5587 59.6839 57.7956 60 57 60Z" fill="#EBE7E1"/>
<path d="M50 57H46V59H50V57Z" fill="#EBE7E1"/>
<path d="M52 43H44V45H52V43Z" fill="#EBE7E1"/>
<path d="M51 47H44V49H51V47Z" fill="#EBE7E1"/>
<path d="M36.7069 39.293L31.7569 34.343C31.6646 34.2475 31.5543 34.1713 31.4323 34.1189C31.3103 34.0665 31.1791 34.0389 31.0463 34.0378C30.9135 34.0366 30.7818 34.0619 30.6589 34.1122C30.536 34.1625 30.4244 34.2367 30.3305 34.3306C30.2366 34.4245 30.1623 34.5362 30.1121 34.6591C30.0618 34.7819 30.0365 34.9136 30.0376 35.0464C30.0388 35.1792 30.0664 35.3104 30.1188 35.4324C30.1712 35.5544 30.2474 35.6648 30.3429 35.757L34.5859 40L30.3429 44.243C30.2474 44.3353 30.1712 44.4456 30.1188 44.5676C30.0664 44.6896 30.0388 44.8208 30.0376 44.9536C30.0365 45.0864 30.0618 45.2181 30.1121 45.341C30.1623 45.4639 30.2366 45.5755 30.3305 45.6694C30.4244 45.7633 30.536 45.8375 30.6589 45.8878C30.7818 45.9381 30.9135 45.9634 31.0463 45.9623C31.1791 45.9611 31.3103 45.9335 31.4323 45.8811C31.5543 45.8287 31.6646 45.7525 31.7569 45.657L36.7069 40.707C36.8944 40.5195 36.9997 40.2652 36.9997 40C36.9997 39.7348 36.8944 39.4805 36.7069 39.293V39.293Z" fill="#EBE7E1"/>
<path d="M31.7069 39.293L26.7569 34.343C26.6646 34.2475 26.5543 34.1713 26.4323 34.1189C26.3103 34.0665 26.1791 34.0389 26.0463 34.0378C25.9135 34.0366 25.7818 34.0619 25.6589 34.1122C25.536 34.1625 25.4244 34.2367 25.3305 34.3306C25.2366 34.4245 25.1623 34.5362 25.1121 34.6591C25.0618 34.7819 25.0365 34.9136 25.0376 35.0464C25.0388 35.1792 25.0664 35.3104 25.1188 35.4324C25.1712 35.5544 25.2474 35.6648 25.3429 35.757L29.5859 40L25.3429 44.243C25.2474 44.3353 25.1712 44.4456 25.1188 44.5676C25.0664 44.6896 25.0388 44.8208 25.0376 44.9536C25.0365 45.0864 25.0618 45.2181 25.1121 45.341C25.1623 45.4639 25.2366 45.5755 25.3305 45.6694C25.4244 45.7633 25.536 45.8375 25.6589 45.8878C25.7818 45.9381 25.9135 45.9634 26.0463 45.9623C26.1791 45.9611 26.3103 45.9335 26.4323 45.8811C26.5543 45.8287 26.6646 45.7525 26.7569 45.657L31.7069 40.707C31.8944 40.5195 31.9997 40.2652 31.9997 40C31.9997 39.7348 31.8944 39.4805 31.7069 39.293Z" fill="#EBE7E1"/>
<path d="M39.5859 40L35.3429 44.243C35.2474 44.3353 35.1712 44.4456 35.1188 44.5676C35.0664 44.6896 35.0388 44.8208 35.0376 44.9536C35.0365 45.0864 35.0618 45.2181 35.1121 45.341C35.1623 45.4639 35.2366 45.5755 35.3305 45.6694C35.4244 45.7633 35.536 45.8375 35.6589 45.8878C35.7818 45.9381 35.9135 45.9634 36.0463 45.9623C36.1791 45.9611 36.3103 45.9335 36.4323 45.8811C36.5543 45.8287 36.6646 45.7525 36.7569 45.657L41.7069 40.707C41.8944 40.5195 41.9997 40.2652 41.9997 40C41.9997 39.7348 41.8944 39.4805 41.7069 39.293L36.7569 34.343C36.6646 34.2475 36.5543 34.1713 36.4323 34.1189C36.3103 34.0665 36.1791 34.0389 36.0463 34.0378C35.9135 34.0366 35.7818 34.0619 35.6589 34.1122C35.536 34.1625 35.4244 34.2367 35.3305 34.3306C35.2366 34.4245 35.1623 34.5362 35.1121 34.6591C35.0618 34.7819 35.0365 34.9136 35.0376 35.0464C35.0388 35.1792 35.0664 35.3104 35.1188 35.4324C35.1712 35.5544 35.2474 35.6648 35.3429 35.757L39.5859 40Z" fill="#EBE7E1"/>
<path d="M29 14H22V16H29V14Z" fill="#EBE7E1"/>
<path d="M29 18H18V20H29V18Z" fill="#EBE7E1"/>
<path d="M29 22H27V24H29V22Z" fill="#EBE7E1"/>
<path d="M29 26H27V28H29V26Z" fill="#EBE7E1"/>
<path d="M14 30H8V32H14V30Z" fill="#EBE7E1"/>
<path d="M29 30H20V32H29V30Z" fill="#EBE7E1"/>
<path d="M14 34H8V36H14V34Z" fill="#EBE7E1"/>
<path d="M10 38H8V40H10V38Z" fill="#EBE7E1"/>
<path d="M18 38H12V40H18V38Z" fill="#EBE7E1"/>
<path d="M56 35H48V37H56V35Z" fill="#EBE7E1"/>
<path d="M52 39H50V41H52V39Z" fill="#EBE7E1"/>
<path d="M46 35H44V37H46V35Z" fill="#EBE7E1"/>
<path d="M48 39H44V41H48V39Z" fill="#EBE7E1"/>
<path d="M56 43H54V45H56V43Z" fill="#EBE7E1"/>
<path d="M46 31H44V33H46V31Z" fill="#EBE7E1"/>
<path d="M56 31H48V33H56V31Z" fill="#EBE7E1"/>
<path d="M56 39H54V41H56V39Z" fill="#EBE7E1"/>
</svg>
