<svg width="64" height="64" viewBox="0 0 64 64" fill="none" xmlns="http://www.w3.org/2000/svg">
<path d="M16 5H14V7H16V5Z" fill="#EBE7E1"/>
<path d="M20 5H18V7H20V5Z" fill="#EBE7E1"/>
<path d="M24 5H22V7H24V5Z" fill="#EBE7E1"/>
<path d="M57 6H54V5C54 4.20435 53.6839 3.44129 53.1213 2.87868C52.5587 2.31607 51.7956 2 51 2H13C12.2044 2 11.4413 2.31607 10.8787 2.87868C10.3161 3.44129 10 4.20435 10 5V6H7C5.6744 6.00159 4.40356 6.52888 3.46622 7.46622C2.52888 8.40356 2.00159 9.6744 2 11V43C2.00159 44.3256 2.52888 45.5964 3.46622 46.5338C4.40356 47.4711 5.6744 47.9984 7 48H24V54H14C12.9391 54 11.9217 54.4214 11.1716 55.1716C10.4214 55.9217 10 56.9391 10 58C10 59.0609 10.4214 60.0783 11.1716 60.8284C11.9217 61.5786 12.9391 62 14 62H50C51.0609 62 52.0783 61.5786 52.8284 60.8284C53.5786 60.0783 54 59.0609 54 58C54 56.9391 53.5786 55.9217 52.8284 55.1716C52.0783 54.4214 51.0609 54 50 54H40V48H57C58.3256 47.9984 59.5964 47.4711 60.5338 46.5338C61.4711 45.5964 61.9984 44.3256 62 43V11C61.9984 9.6744 61.4711 8.40356 60.5338 7.46622C59.5964 6.52888 58.3256 6.00159 57 6V6ZM54 12H56V40H54V12ZM12 5C12 4.73478 12.1054 4.48043 12.2929 4.29289C12.4804 4.10536 12.7348 4 13 4H51C51.2652 4 51.5196 4.10536 51.7071 4.29289C51.8946 4.48043 52 4.73478 52 5V8H12V5ZM12 10H52V40H12V10ZM52 58C52 58.5304 51.7893 59.0391 51.4142 59.4142C51.0391 59.7893 50.5304 60 50 60H14C13.4696 60 12.9609 59.7893 12.5858 59.4142C12.2107 59.0391 12 58.5304 12 58C12 57.4696 12.2107 56.9609 12.5858 56.5858C12.9609 56.2107 13.4696 56 14 56H50C50.5304 56 51.0391 56.2107 51.4142 56.5858C51.7893 56.9609 52 57.4696 52 58ZM38 54H26V48H38V54ZM60 43C60 43.7956 59.6839 44.5587 59.1213 45.1213C58.5587 45.6839 57.7956 46 57 46H7C6.20435 46 5.44129 45.6839 4.87868 45.1213C4.31607 44.5587 4 43.7956 4 43V11C4 10.2044 4.31607 9.44129 4.87868 8.87868C5.44129 8.31607 6.20435 8 7 8H10V10H7C6.73478 10 6.48043 10.1054 6.29289 10.2929C6.10536 10.4804 6 10.7348 6 11V41C6 41.2652 6.10536 41.5196 6.29289 41.7071C6.48043 41.8946 6.73478 42 7 42H57C57.2652 42 57.5196 41.8946 57.7071 41.7071C57.8946 41.5196 58 41.2652 58 41V11C58 10.7348 57.8946 10.4804 57.7071 10.2929C57.5196 10.1054 57.2652 10 57 10H54V8H57C57.7956 8 58.5587 8.31607 59.1213 8.87868C59.6839 9.44129 60 10.2044 60 11V43ZM10 12V40H8V12H10Z" fill="#EBE7E1"/>
<path d="M47 36V22H41V36H39V30H33V36H31V26H25V36H23V30H17V36H14V38H50V36H47ZM19 36V32H21V36H19ZM27 36V28H29V36H27ZM35 36V32H37V36H35ZM43 36V24H45V36H43Z" fill="#EBE7E1"/>
<path d="M42.715 17.7C43.1152 17.8957 43.5545 17.9983 44 18C44.5934 18 45.1734 17.8241 45.6667 17.4944C46.1601 17.1648 46.5446 16.6962 46.7717 16.1481C46.9987 15.5999 47.0581 14.9967 46.9424 14.4147C46.8266 13.8328 46.5409 13.2982 46.1213 12.8787C45.7018 12.4591 45.1672 12.1734 44.5853 12.0576C44.0033 11.9419 43.4001 12.0013 42.852 12.2284C42.3038 12.4554 41.8353 12.8399 41.5056 13.3333C41.176 13.8266 41 14.4067 41 15C41.0017 15.4455 41.1043 15.8848 41.3 16.285L37.285 20.3C36.8848 20.1043 36.4455 20.0017 36 20C35.4094 19.9988 34.8317 20.1728 34.34 20.5L30.851 17.884C30.9452 17.5986 30.9954 17.3005 31 17C31 16.2044 30.6839 15.4413 30.1213 14.8787C29.5587 14.3161 28.7957 14 28 14C27.2044 14 26.4413 14.3161 25.8787 14.8787C25.3161 15.4413 25 16.2044 25 17C25.0041 17.302 25.0547 17.6015 25.15 17.888L21.66 20.5C21.0525 20.0782 20.3149 19.886 19.5788 19.9576C18.8427 20.0292 18.1559 20.3599 17.641 20.8908C17.1261 21.4218 16.8166 22.1183 16.7676 22.8563C16.7186 23.5942 16.9334 24.3256 17.3736 24.9199C17.8138 25.5142 18.4508 25.9329 19.171 26.1011C19.8912 26.2694 20.6477 26.1763 21.3056 25.8385C21.9636 25.5008 22.4802 24.9403 22.7632 24.257C23.0463 23.5737 23.0774 22.8121 22.851 22.108L26.34 19.5C26.8313 19.8286 27.409 20.0039 28 20.0039C28.591 20.0039 29.1687 19.8286 29.66 19.5L33.149 22.116C33.0549 22.4014 33.0046 22.6995 33 23C33 23.7957 33.3161 24.5587 33.8787 25.1213C34.4413 25.6839 35.2044 26 36 26C36.7957 26 37.5587 25.6839 38.1213 25.1213C38.6839 24.5587 39 23.7957 39 23C38.9983 22.5545 38.8957 22.1152 38.7 21.715L42.715 17.7ZM44 14C44.1978 14 44.3911 14.0587 44.5556 14.1685C44.72 14.2784 44.8482 14.4346 44.9239 14.6173C44.9996 14.8 45.0194 15.0011 44.9808 15.1951C44.9422 15.3891 44.847 15.5673 44.7071 15.7071C44.5673 15.847 44.3891 15.9422 44.1951 15.9808C44.0011 16.0194 43.8001 15.9996 43.6173 15.9239C43.4346 15.8482 43.2784 15.72 43.1685 15.5556C43.0587 15.3911 43 15.1978 43 15C43 14.7348 43.1054 14.4804 43.2929 14.2929C43.4804 14.1054 43.7348 14 44 14ZM20 24C19.8022 24 19.6089 23.9414 19.4444 23.8315C19.28 23.7216 19.1518 23.5654 19.0761 23.3827C19.0004 23.2 18.9806 22.9989 19.0192 22.8049C19.0578 22.6109 19.1531 22.4327 19.2929 22.2929C19.4328 22.153 19.6109 22.0578 19.8049 22.0192C19.9989 21.9806 20.2 22.0004 20.3827 22.0761C20.5654 22.1518 20.7216 22.28 20.8315 22.4444C20.9414 22.6089 21 22.8022 21 23C21 23.2652 20.8947 23.5196 20.7071 23.7071C20.5196 23.8946 20.2652 24 20 24ZM28 18C27.8022 18 27.6089 17.9414 27.4444 17.8315C27.28 17.7216 27.1518 17.5654 27.0761 17.3827C27.0004 17.2 26.9806 16.9989 27.0192 16.8049C27.0578 16.6109 27.1531 16.4327 27.2929 16.2929C27.4328 16.153 27.6109 16.0578 27.8049 16.0192C27.9989 15.9806 28.2 16.0004 28.3827 16.0761C28.5654 16.1518 28.7216 16.28 28.8315 16.4444C28.9414 16.6089 29 16.8022 29 17C29 17.2652 28.8947 17.5196 28.7071 17.7071C28.5196 17.8946 28.2652 18 28 18ZM36 24C35.8022 24 35.6089 23.9414 35.4444 23.8315C35.28 23.7216 35.1518 23.5654 35.0761 23.3827C35.0005 23.2 34.9806 22.9989 35.0192 22.8049C35.0578 22.6109 35.1531 22.4327 35.2929 22.2929C35.4328 22.153 35.6109 22.0578 35.8049 22.0192C35.9989 21.9806 36.2 22.0004 36.3827 22.0761C36.5654 22.1518 36.7216 22.28 36.8315 22.4444C36.9414 22.6089 37 22.8022 37 23C37 23.2652 36.8947 23.5196 36.7071 23.7071C36.5196 23.8946 36.2652 24 36 24Z" fill="#EBE7E1"/>
</svg>
