<svg width="50" height="51" viewBox="0 0 50 51" fill="none" xmlns="http://www.w3.org/2000/svg">
<g clip-path="url(#clip0_357_524)">
<path d="M15.7759 33.5356C15.7759 33.1231 15.9398 32.7274 16.2315 32.4356C16.5233 32.1439 16.9189 31.98 17.3315 31.98H23.5541C23.9667 31.98 24.3624 32.1439 24.6541 32.4356C24.9459 32.7274 25.1097 33.1231 25.1097 33.5356C25.1097 33.9482 24.9459 34.3439 24.6541 34.6356C24.3624 34.9274 23.9667 35.0913 23.5541 35.0913H17.3315C16.9189 35.0913 16.5233 34.9274 16.2315 34.6356C15.9398 34.3439 15.7759 33.9482 15.7759 33.5356ZM15.7759 27.3131C15.7759 26.9005 15.9398 26.5048 16.2315 26.2131C16.5233 25.9213 16.9189 25.7574 17.3315 25.7574H32.888C33.3006 25.7574 33.6962 25.9213 33.988 26.2131C34.2797 26.5048 34.4436 26.9005 34.4436 27.3131C34.4436 27.7256 34.2797 28.1213 33.988 28.4131C33.6962 28.7048 33.3006 28.8687 32.888 28.8687H17.3315C16.9189 28.8687 16.5233 28.7048 16.2315 28.4131C15.9398 28.1213 15.7759 27.7256 15.7759 27.3131ZM15.7759 21.0905C15.7759 20.6779 15.9398 20.2822 16.2315 19.9905C16.5233 19.6987 16.9189 19.5348 17.3315 19.5348H32.888C33.3006 19.5348 33.6962 19.6987 33.988 19.9905C34.2797 20.2822 34.4436 20.6779 34.4436 21.0905C34.4436 21.5031 34.2797 21.8987 33.988 22.1905C33.6962 22.4822 33.3006 22.6461 32.888 22.6461H17.3315C16.9189 22.6461 16.5233 22.4822 16.2315 22.1905C15.9398 21.8987 15.7759 21.5031 15.7759 21.0905ZM15.7759 14.8679C15.7759 14.4553 15.9398 14.0596 16.2315 13.7679C16.5233 13.4762 16.9189 13.3123 17.3315 13.3123H32.888C33.3006 13.3123 33.6962 13.4762 33.988 13.7679C34.2797 14.0596 34.4436 14.4553 34.4436 14.8679C34.4436 15.2805 34.2797 15.6762 33.988 15.9679C33.6962 16.2596 33.3006 16.4235 32.888 16.4235H17.3315C16.9189 16.4235 16.5233 16.2596 16.2315 15.9679C15.9398 15.6762 15.7759 15.2805 15.7759 14.8679Z" fill="#EBE7E1"/>
<path d="M9.55333 0.867065H40.6662C42.3166 0.867065 43.8993 1.52266 45.0663 2.68962C46.2332 3.85658 46.8888 5.43931 46.8888 7.08965V44.4251C46.8888 46.0755 46.2332 47.6582 45.0663 48.8252C43.8993 49.9921 42.3166 50.6477 40.6662 50.6477H9.55333C7.903 50.6477 6.32026 49.9921 5.1533 48.8252C3.98634 47.6582 3.33075 46.0755 3.33075 44.4251V41.3138H6.44204V44.4251C6.44204 45.2503 6.76983 46.0417 7.35331 46.6251C7.93679 47.2086 8.72816 47.5364 9.55333 47.5364H40.6662C41.4914 47.5364 42.2828 47.2086 42.8662 46.6251C43.4497 46.0417 43.7775 45.2503 43.7775 44.4251V7.08965C43.7775 6.26448 43.4497 5.47311 42.8662 4.88963C42.2828 4.30615 41.4914 3.97836 40.6662 3.97836H9.55333C8.72816 3.97836 7.93679 4.30615 7.35331 4.88963C6.76983 5.47311 6.44204 6.26448 6.44204 7.08965V10.2009H3.33075V7.08965C3.33075 5.43931 3.98634 3.85658 5.1533 2.68962C6.32026 1.52266 7.903 0.867065 9.55333 0.867065V0.867065Z" fill="#EBE7E1"/>
<path d="M3.33071 16.4235V14.8679C3.33071 14.4553 3.49461 14.0596 3.78635 13.7679C4.07809 13.4762 4.47377 13.3123 4.88636 13.3123C5.29894 13.3123 5.69462 13.4762 5.98636 13.7679C6.2781 14.0596 6.442 14.4553 6.442 14.8679V16.4235H7.99765C8.41023 16.4235 8.80591 16.5874 9.09765 16.8792C9.38939 17.1709 9.55329 17.5666 9.55329 17.9792C9.55329 18.3918 9.38939 18.7875 9.09765 19.0792C8.80591 19.3709 8.41023 19.5348 7.99765 19.5348H1.77507C1.36248 19.5348 0.966799 19.3709 0.675059 19.0792C0.383319 18.7875 0.219421 18.3918 0.219421 17.9792C0.219421 17.5666 0.383319 17.1709 0.675059 16.8792C0.966799 16.5874 1.36248 16.4235 1.77507 16.4235H3.33071ZM3.33071 25.7574V24.2018C3.33071 23.7892 3.49461 23.3935 3.78635 23.1018C4.07809 22.81 4.47377 22.6461 4.88636 22.6461C5.29894 22.6461 5.69462 22.81 5.98636 23.1018C6.2781 23.3935 6.442 23.7892 6.442 24.2018V25.7574H7.99765C8.41023 25.7574 8.80591 25.9213 9.09765 26.2131C9.38939 26.5048 9.55329 26.9005 9.55329 27.3131C9.55329 27.7256 9.38939 28.1213 9.09765 28.4131C8.80591 28.7048 8.41023 28.8687 7.99765 28.8687H1.77507C1.36248 28.8687 0.966799 28.7048 0.675059 28.4131C0.383319 28.1213 0.219421 27.7256 0.219421 27.3131C0.219421 26.9005 0.383319 26.5048 0.675059 26.2131C0.966799 25.9213 1.36248 25.7574 1.77507 25.7574H3.33071ZM3.33071 35.0913V33.5356C3.33071 33.1231 3.49461 32.7274 3.78635 32.4356C4.07809 32.1439 4.47377 31.98 4.88636 31.98C5.29894 31.98 5.69462 32.1439 5.98636 32.4356C6.2781 32.7274 6.442 33.1231 6.442 33.5356V35.0913H7.99765C8.41023 35.0913 8.80591 35.2552 9.09765 35.5469C9.38939 35.8387 9.55329 36.2343 9.55329 36.6469C9.55329 37.0595 9.38939 37.4552 9.09765 37.7469C8.80591 38.0387 8.41023 38.2026 7.99765 38.2026H1.77507C1.36248 38.2026 0.966799 38.0387 0.675059 37.7469C0.383319 37.4552 0.219421 37.0595 0.219421 36.6469C0.219421 36.2343 0.383319 35.8387 0.675059 35.5469C0.966799 35.2552 1.36248 35.0913 1.77507 35.0913H3.33071Z" fill="#EBE7E1"/>
</g>
<defs>
<clipPath id="clip0_357_524">
<rect width="49.7806" height="49.7806" fill="white" transform="translate(0.21936 0.867126)"/>
</clipPath>
</defs>
</svg>
