<svg width="68" height="68" viewBox="0 0 68 68" fill="none" xmlns="http://www.w3.org/2000/svg">
<path d="M11.5 11.7143C9.42893 11.7143 7.75 13.3772 7.75 15.4286V45.1429C7.75 47.1942 9.42893 48.8571 11.5 48.8571H32.125C33.1605 48.8571 34 49.6886 34 50.7143C34 51.74 33.1605 52.5714 32.125 52.5714H11.5C7.35787 52.5714 4 49.2455 4 45.1429V15.4286C4 11.3259 7.35786 8 11.5 8H52.75C56.8921 8 60.25 11.3259 60.25 15.4286V30.2857C60.25 31.3114 59.4105 32.1429 58.375 32.1429C57.3395 32.1429 56.5 31.3114 56.5 30.2857V15.4286C56.5 13.3772 54.8211 11.7143 52.75 11.7143H11.5Z" fill="#EBE7E1"/>
<path d="M15.7992 19.6868C16.5314 18.9615 17.7186 18.9615 18.4508 19.6868L23.4129 24.6016C24.5113 25.6895 24.5113 27.4533 23.4129 28.5412L18.4508 33.4561C17.7186 34.1813 16.5314 34.1813 15.7992 33.4561C15.0669 32.7308 15.0669 31.5549 15.7992 30.8297L20.0984 26.5714L15.7992 22.3132C15.0669 21.5879 15.0669 20.4121 15.7992 19.6868Z" fill="#EBE7E1"/>
<path d="M24.625 34C24.625 32.9743 25.4645 32.1429 26.5 32.1429H34C35.0355 32.1429 35.875 32.9743 35.875 34C35.875 35.0257 35.0355 35.8571 34 35.8571H26.5C25.4645 35.8571 24.625 35.0257 24.625 34Z" fill="#EBE7E1"/>
<path d="M64 47C64 54.1797 58.1237 60 50.875 60C43.6263 60 37.75 54.1797 37.75 47C37.75 39.8203 43.6263 34 50.875 34C58.1237 34 64 39.8203 64 47ZM50.875 39.5714C49.8395 39.5714 49 40.4029 49 41.4286V45.1429H45.25C44.2145 45.1429 43.375 45.9743 43.375 47C43.375 48.0257 44.2145 48.8571 45.25 48.8571H49V52.5714C49 53.5971 49.8395 54.4286 50.875 54.4286C51.9105 54.4286 52.75 53.5971 52.75 52.5714V48.8571H56.5C57.5355 48.8571 58.375 48.0257 58.375 47C58.375 45.9743 57.5355 45.1429 56.5 45.1429H52.75V41.4286C52.75 40.4029 51.9105 39.5714 50.875 39.5714Z" fill="#EBE7E1"/>
</svg>
