<svg width="140" height="140" viewBox="0 0 140 140" fill="none" xmlns="http://www.w3.org/2000/svg">
<rect x="1.34615" y="1.34615" width="137.308" height="137.308" rx="30.9615" stroke="url(#paint0_linear_388_439)" stroke-width="2.69231"/>
<rect x="48.9658" y="30.9658" width="44.0449" height="78.6327" rx="7.208" stroke="url(#paint1_linear_388_439)" stroke-width="3.93164"/>
<rect x="86.0507" y="60.2407" width="18.5956" height="18.5956" rx="3.27636" fill="url(#paint2_linear_388_439)"/>
<path d="M99.8163 73.4731L102.048 80.5394C102.569 81.7671 102.931 82.1634 103.907 81.4692L104.837 80.5394L106.697 82.399C107.274 82.9862 107.601 82.9305 108.184 82.5849L109.672 81.2832C110.135 80.6303 110.082 80.263 109.672 79.6096L107.812 77.7501L108.742 76.8203C109.301 76.1671 109.461 75.7997 108.742 75.1467L100.746 72.5433C99.8886 72.4122 99.7842 72.715 99.8163 73.4731Z" fill="#F9F9F9"/>
<circle cx="71.0149" cy="98.5474" r="5.24218" fill="url(#paint3_linear_388_439)"/>
<defs>
<linearGradient id="paint0_linear_388_439" x1="130.5" y1="8.00001" x2="27.125" y2="122.5" gradientUnits="userSpaceOnUse">
<stop stop-color="#EBE7E1" stop-opacity="0.5"/>
<stop offset="1" stop-color="#9D9696" stop-opacity="0"/>
</linearGradient>
<linearGradient id="paint1_linear_388_439" x1="70.9883" y1="29" x2="70.9883" y2="111.564" gradientUnits="userSpaceOnUse">
<stop stop-color="#EBE7E1"/>
<stop offset="1" stop-color="#EBE7E1" stop-opacity="0.1"/>
</linearGradient>
<linearGradient id="paint2_linear_388_439" x1="86.0507" y1="69.2386" x2="104.646" y2="69.2386" gradientUnits="userSpaceOnUse">
<stop stop-color="#A48FF5"/>
<stop offset="1" stop-color="#F3A38D"/>
</linearGradient>
<linearGradient id="paint3_linear_388_439" x1="65.7727" y1="98.3782" x2="76.2571" y2="98.3782" gradientUnits="userSpaceOnUse">
<stop stop-color="#A48FF5"/>
<stop offset="1" stop-color="#F3A38D"/>
</linearGradient>
</defs>
</svg>
