<svg width="140" height="140" viewBox="0 0 140 140" fill="none" xmlns="http://www.w3.org/2000/svg">
<rect x="1.34615" y="1.34615" width="137.308" height="137.308" rx="30.9615" stroke="url(#paint0_linear_389_458)" stroke-width="2.69231"/>
<path d="M89.6103 71.5414C88.7754 71.5414 87.9599 71.6488 87.1704 71.8563V71.4691C87.1704 69.595 85.6116 68.0703 83.6955 68.0703H43.4749C41.5588 68.0703 40 69.595 40 71.4691V87.6677C40 92.3812 42.2531 96.9682 45.9148 99.7792V101.552C45.9148 103.426 47.4736 104.951 49.3897 104.951H77.7807C79.6968 104.951 81.2556 103.426 81.2556 101.552V99.7792C83.8426 97.7933 85.7251 94.9205 86.6081 91.7431C87.5701 92.0615 88.5755 92.2236 89.6103 92.2236C94.7878 92.2236 99 88.1037 99 83.0396V80.7255C99 75.6614 94.7878 71.5414 89.6103 71.5414ZM87.1704 80.7255C87.1704 79.4096 88.265 78.3391 89.6103 78.3391C90.9556 78.3391 92.0501 79.4096 92.0501 80.7255V83.0396C92.0501 84.3554 90.9556 85.426 89.6103 85.426C88.265 85.426 87.1704 84.3554 87.1704 83.0396V80.7255ZM77.7807 102.782H49.3897C48.6967 102.782 48.1328 102.23 48.1328 101.552V100.323H79.0376V101.552C79.0376 102.23 78.4738 102.782 77.7807 102.782ZM84.9524 87.6677C84.9524 91.7721 82.9782 95.7562 79.7789 98.1534H47.3916C44.1923 95.7561 42.218 91.7721 42.218 87.6677V71.4691C42.218 70.7912 42.7819 70.2398 43.4749 70.2398H83.6955C84.3886 70.2398 84.9524 70.7912 84.9524 71.4691V80.7255V83.0396V87.6677ZM96.782 83.0396C96.782 86.9074 93.5648 90.0541 89.6103 90.0541C88.7208 90.0541 87.8607 89.8966 87.0447 89.5899C87.1268 88.9542 87.1704 88.3124 87.1704 87.6677V86.9184C87.8805 87.3472 88.7163 87.5954 89.6103 87.5954C92.1786 87.5954 94.2682 85.5516 94.2682 83.0396V80.7255C94.2682 78.2134 92.1786 76.1696 89.6103 76.1696C88.7163 76.1696 87.8805 76.4178 87.1704 76.8466V74.1287C87.9488 73.8525 88.7664 73.7109 89.6103 73.7109C93.5648 73.7109 96.782 76.8576 96.782 80.7255V83.0396Z" fill="url(#paint1_linear_389_458)"/>
<path d="M63.382 55.9675C62.2204 56.9783 60.7747 58.2363 60.7747 60.6487C60.7747 61.2051 61.2495 61.6562 61.8355 61.6562C62.4215 61.6562 62.8963 61.2051 62.8963 60.6487C62.8963 59.1228 63.7432 58.386 64.8152 57.4531C65.9768 56.4423 67.4225 55.1844 67.4225 52.7719C67.4225 50.3582 65.977 49.0996 64.8154 48.0881C63.7432 47.1547 62.8963 46.4171 62.8963 44.8897C62.8963 43.3621 63.7433 42.6247 64.8154 41.691C65.977 40.6798 67.4225 39.4211 67.4225 37.0074C67.4225 36.4511 66.9477 36 66.3617 36C65.7757 36 65.3009 36.4511 65.3009 37.0074C65.3009 38.5349 64.4541 39.2723 63.3818 40.206C62.2202 41.2173 60.7747 42.476 60.7747 44.8897C60.7747 47.3034 62.2202 48.562 63.3818 49.5733C64.4539 50.507 65.3009 51.2445 65.3009 52.772C65.3009 54.2978 64.4541 55.0347 63.382 55.9675Z" fill="url(#paint2_linear_389_458)"/>
<path d="M75.8468 57.6143C74.6851 58.6174 73.2394 59.8658 73.2394 62.2599C73.2394 62.8121 73.7143 63.2597 74.3003 63.2597C74.8863 63.2597 75.3611 62.8121 75.3611 62.2599C75.3611 60.7456 76.2079 60.0145 77.2799 59.0887C78.4416 58.0857 79.8873 56.8372 79.8873 54.4431C79.8873 52.0478 78.4418 50.7987 77.2802 49.7949C76.2079 48.8686 75.3611 48.1367 75.3611 46.6209C75.3611 46.0687 74.8863 45.6211 74.3003 45.6211C73.7143 45.6211 73.2394 46.0687 73.2394 46.6209C73.2394 49.0162 74.685 50.2652 75.8465 51.2689C76.9187 52.1955 77.7657 52.9273 77.7657 54.4432C77.7657 55.9574 76.9188 56.6887 75.8468 57.6143Z" fill="url(#paint3_linear_389_458)"/>
<path d="M52.5792 57.6143C51.4175 58.6174 49.9718 59.8658 49.9718 62.2599C49.9718 62.8121 50.4467 63.2597 51.0327 63.2597C51.6187 63.2597 52.0935 62.8121 52.0935 62.2599C52.0935 60.7456 52.9403 60.0145 54.0123 59.0887C55.174 58.0857 56.6197 56.8372 56.6197 54.4431C56.6197 52.0478 55.1742 50.7987 54.0126 49.7949C52.9403 48.8686 52.0935 48.1367 52.0935 46.6209C52.0935 46.0687 51.6187 45.6211 51.0327 45.6211C50.4467 45.6211 49.9718 46.0687 49.9718 46.6209C49.9718 49.0162 51.4174 50.2652 52.5789 51.2689C53.6511 52.1955 54.4981 52.9273 54.4981 54.4432C54.4981 55.9574 53.6512 56.6887 52.5792 57.6143Z" fill="url(#paint4_linear_389_458)"/>
<defs>
<linearGradient id="paint0_linear_389_458" x1="130.5" y1="8.00001" x2="27.125" y2="122.5" gradientUnits="userSpaceOnUse">
<stop stop-color="#EBE7E1" stop-opacity="0.5"/>
<stop offset="1" stop-color="#9D9696" stop-opacity="0"/>
</linearGradient>
<linearGradient id="paint1_linear_389_458" x1="69.5" y1="68.0703" x2="69.5" y2="104.951" gradientUnits="userSpaceOnUse">
<stop stop-color="#EBE7E1"/>
<stop offset="1" stop-color="#EBE7E1" stop-opacity="0"/>
</linearGradient>
<linearGradient id="paint2_linear_389_458" x1="62.0212" y1="34.8338" x2="61.2032" y2="61.6439" gradientUnits="userSpaceOnUse">
<stop stop-color="#A48FF5" stop-opacity="0.6"/>
<stop offset="1" stop-color="#F3A38D" stop-opacity="0.1"/>
</linearGradient>
<linearGradient id="paint3_linear_389_458" x1="74.486" y1="44.8193" x2="74.0992" y2="63.2603" gradientUnits="userSpaceOnUse">
<stop stop-color="#A48FF5" stop-opacity="0.6"/>
<stop offset="1" stop-color="#F3A38D" stop-opacity="0.1"/>
</linearGradient>
<linearGradient id="paint4_linear_389_458" x1="51.2184" y1="44.8193" x2="50.8316" y2="63.2603" gradientUnits="userSpaceOnUse">
<stop stop-color="#A48FF5" stop-opacity="0.6"/>
<stop offset="1" stop-color="#F3A38D" stop-opacity="0.1"/>
</linearGradient>
</defs>
</svg>
