<svg width="1266" height="128" viewBox="0 0 1266 128" fill="none" xmlns="http://www.w3.org/2000/svg">
<path opacity="0.08" d="M0.980001 126V2.16H51.56L70.64 67.5H72.08L90.8 2.16H141.38V126H105.92V51.3H104.3L83.06 126H58.22L36.98 51.3H35.36V126H0.980001ZM163.402 126V2.16H252.142V29.34H200.302V50.04H243.682V76.86H200.302V98.82H252.142V126H163.402ZM295.795 126V30.78H263.755V2.16H364.915V30.78H332.875V126H295.795ZM430.574 127.44C419.894 127.44 411.134 126.84 404.294 125.64C397.574 124.32 392.294 122.22 388.454 119.34C384.614 116.46 381.854 112.56 380.174 107.64C378.494 102.72 377.414 96.72 376.934 89.64C376.574 82.44 376.394 73.92 376.394 64.08C376.394 54.24 376.574 45.78 376.934 38.7C377.414 31.5 378.494 25.44 380.174 20.52C381.854 15.6 384.614 11.7 388.454 8.82C392.294 5.94 397.574 3.89999 404.294 2.69999C411.134 1.37999 419.894 0.719993 430.574 0.719993C441.254 0.719993 449.954 1.37999 456.674 2.69999C463.514 3.89999 468.854 5.94 472.694 8.82C476.534 11.7 479.294 15.6 480.974 20.52C482.654 25.44 483.734 31.5 484.214 38.7C484.694 45.78 484.934 54.24 484.934 64.08C484.934 73.92 484.694 82.44 484.214 89.64C483.734 96.72 482.654 102.72 480.974 107.64C479.294 112.56 476.534 116.46 472.694 119.34C468.854 122.22 463.514 124.32 456.674 125.64C449.954 126.84 441.254 127.44 430.574 127.44ZM430.574 100.26C433.934 100.26 436.634 100.14 438.674 99.9C440.834 99.54 442.514 98.82 443.714 97.74C444.914 96.54 445.754 94.68 446.234 92.16C446.834 89.52 447.194 85.98 447.314 81.54C447.554 76.98 447.674 71.16 447.674 64.08C447.674 57 447.554 51.24 447.314 46.8C447.194 42.24 446.834 38.7 446.234 36.18C445.754 33.54 444.914 31.68 443.714 30.6C442.514 29.4 440.834 28.68 438.674 28.44C436.634 28.08 433.934 27.9 430.574 27.9C427.214 27.9 424.454 28.08 422.294 28.44C420.254 28.68 418.634 29.4 417.434 30.6C416.234 31.68 415.334 33.54 414.734 36.18C414.254 38.7 413.954 42.24 413.834 46.8C413.714 51.24 413.654 57 413.654 64.08C413.654 71.16 413.714 76.98 413.834 81.54C413.954 85.98 414.254 89.52 414.734 92.16C415.334 94.68 416.234 96.54 417.434 97.74C418.634 98.82 420.254 99.54 422.294 99.9C424.454 100.14 427.214 100.26 430.574 100.26ZM504.593 126V2.16H549.233C560.513 2.16 569.693 2.76 576.773 3.95999C583.853 5.03999 589.433 6.95999 593.513 9.72C597.593 12.48 600.473 16.26 602.153 21.06C603.953 25.74 605.093 31.62 605.573 38.7C606.053 45.66 606.293 54.12 606.293 64.08C606.293 74.04 606.053 82.56 605.573 89.64C605.093 96.6 603.953 102.48 602.153 107.28C600.473 111.96 597.593 115.68 593.513 118.44C589.433 121.2 583.853 123.18 576.773 124.38C569.693 125.46 560.513 126 549.233 126H504.593ZM541.673 98.82H549.233C553.073 98.82 556.193 98.7 558.593 98.46C561.113 98.1 563.093 97.38 564.533 96.3C565.973 95.22 566.993 93.42 567.593 90.9C568.193 88.38 568.553 85.02 568.673 80.82C568.913 76.5 569.033 70.98 569.033 64.26C569.033 57.42 568.913 51.84 568.673 47.52C568.553 43.2 568.193 39.84 567.593 37.44C566.993 34.92 565.973 33.12 564.533 32.04C563.093 30.84 561.113 30.12 558.593 29.88C556.193 29.52 553.073 29.34 549.233 29.34H541.673V98.82ZM677.722 127.44C667.042 127.44 658.282 126.84 651.442 125.64C644.722 124.32 639.442 122.22 635.602 119.34C631.762 116.46 629.002 112.56 627.322 107.64C625.642 102.72 624.562 96.72 624.082 89.64C623.722 82.44 623.542 73.92 623.542 64.08C623.542 54.24 623.722 45.78 624.082 38.7C624.562 31.5 625.642 25.44 627.322 20.52C629.002 15.6 631.762 11.7 635.602 8.82C639.442 5.94 644.722 3.89999 651.442 2.69999C658.282 1.37999 667.042 0.719993 677.722 0.719993C688.402 0.719993 697.102 1.37999 703.822 2.69999C710.662 3.89999 716.002 5.94 719.842 8.82C723.682 11.7 726.442 15.6 728.122 20.52C729.802 25.44 730.882 31.5 731.362 38.7C731.842 45.78 732.082 54.24 732.082 64.08C732.082 73.92 731.842 82.44 731.362 89.64C730.882 96.72 729.802 102.72 728.122 107.64C726.442 112.56 723.682 116.46 719.842 119.34C716.002 122.22 710.662 124.32 703.822 125.64C697.102 126.84 688.402 127.44 677.722 127.44ZM677.722 100.26C681.082 100.26 683.782 100.14 685.822 99.9C687.982 99.54 689.662 98.82 690.862 97.74C692.062 96.54 692.902 94.68 693.382 92.16C693.982 89.52 694.342 85.98 694.462 81.54C694.702 76.98 694.822 71.16 694.822 64.08C694.822 57 694.702 51.24 694.462 46.8C694.342 42.24 693.982 38.7 693.382 36.18C692.902 33.54 692.062 31.68 690.862 30.6C689.662 29.4 687.982 28.68 685.822 28.44C683.782 28.08 681.082 27.9 677.722 27.9C674.362 27.9 671.602 28.08 669.442 28.44C667.402 28.68 665.782 29.4 664.582 30.6C663.382 31.68 662.482 33.54 661.882 36.18C661.402 38.7 661.102 42.24 660.982 46.8C660.862 51.24 660.802 57 660.802 64.08C660.802 71.16 660.862 76.98 660.982 81.54C661.102 85.98 661.402 89.52 661.882 92.16C662.482 94.68 663.382 96.54 664.582 97.74C665.782 98.82 667.402 99.54 669.442 99.9C671.602 100.14 674.362 100.26 677.722 100.26ZM751.742 126V2.16H788.822V97.38H833.282V126H751.742ZM899.91 127.44C889.23 127.44 880.47 126.84 873.63 125.64C866.91 124.32 861.63 122.22 857.79 119.34C853.95 116.46 851.19 112.56 849.51 107.64C847.83 102.72 846.75 96.72 846.27 89.64C845.91 82.44 845.73 73.92 845.73 64.08C845.73 54.24 845.91 45.78 846.27 38.7C846.75 31.5 847.83 25.44 849.51 20.52C851.19 15.6 853.95 11.7 857.79 8.82C861.63 5.94 866.91 3.89999 873.63 2.69999C880.47 1.37999 889.23 0.719993 899.91 0.719993C910.59 0.719993 919.29 1.37999 926.01 2.69999C932.85 3.89999 938.19 5.94 942.03 8.82C945.87 11.7 948.63 15.6 950.31 20.52C951.99 25.44 953.07 31.5 953.55 38.7C954.03 45.78 954.27 54.24 954.27 64.08C954.27 73.92 954.03 82.44 953.55 89.64C953.07 96.72 951.99 102.72 950.31 107.64C948.63 112.56 945.87 116.46 942.03 119.34C938.19 122.22 932.85 124.32 926.01 125.64C919.29 126.84 910.59 127.44 899.91 127.44ZM899.91 100.26C903.27 100.26 905.97 100.14 908.01 99.9C910.17 99.54 911.85 98.82 913.05 97.74C914.25 96.54 915.09 94.68 915.57 92.16C916.17 89.52 916.53 85.98 916.65 81.54C916.89 76.98 917.01 71.16 917.01 64.08C917.01 57 916.89 51.24 916.65 46.8C916.53 42.24 916.17 38.7 915.57 36.18C915.09 33.54 914.25 31.68 913.05 30.6C911.85 29.4 910.17 28.68 908.01 28.44C905.97 28.08 903.27 27.9 899.91 27.9C896.55 27.9 893.79 28.08 891.63 28.44C889.59 28.68 887.97 29.4 886.77 30.6C885.57 31.68 884.67 33.54 884.07 36.18C883.59 38.7 883.29 42.24 883.17 46.8C883.05 51.24 882.99 57 882.99 64.08C882.99 71.16 883.05 76.98 883.17 81.54C883.29 85.98 883.59 89.52 884.07 92.16C884.67 94.68 885.57 96.54 886.77 97.74C887.97 98.82 889.59 99.54 891.63 99.9C893.79 100.14 896.55 100.26 899.91 100.26ZM1027.57 127.44C1018.33 127.44 1010.47 126.84 1003.99 125.64C997.509 124.32 992.109 122.28 987.789 119.52C983.589 116.64 980.289 112.8 977.889 108C975.609 103.2 973.989 97.2 973.029 90C972.069 82.68 971.589 74.04 971.589 64.08C971.589 54.12 972.069 45.54 973.029 38.34C973.989 31.02 975.669 24.96 978.069 20.16C980.469 15.36 983.769 11.58 987.969 8.82C992.169 5.94 997.509 3.89999 1003.99 2.69999C1010.47 1.37999 1018.33 0.719993 1027.57 0.719993C1031.89 0.719993 1036.63 0.899994 1041.79 1.26C1046.95 1.61999 1052.17 2.09999 1057.45 2.69999C1062.73 3.3 1067.53 4.02 1071.85 4.85999V30.42C1068.01 29.94 1064.05 29.52 1059.97 29.16C1055.89 28.8 1052.05 28.5 1048.45 28.26C1044.97 28.02 1042.15 27.9 1039.99 27.9C1033.99 27.9 1029.01 28.08 1025.05 28.44C1021.21 28.68 1018.15 29.4 1015.87 30.6C1013.59 31.68 1011.85 33.48 1010.65 36C1009.57 38.52 1008.85 42.06 1008.49 46.62C1008.13 51.18 1007.95 57 1007.95 64.08C1007.95 70.32 1008.07 75.66 1008.31 80.1C1008.55 84.42 1009.09 87.96 1009.93 90.72C1010.77 93.36 1011.97 95.46 1013.53 97.02C1015.09 98.46 1017.13 99.48 1019.65 100.08C1022.17 100.56 1025.35 100.8 1029.19 100.8C1030.03 100.8 1031.05 100.8 1032.25 100.8C1033.57 100.68 1034.89 100.62 1036.21 100.62C1037.53 100.62 1038.67 100.56 1039.63 100.44V77.76H1025.05V52.74H1072.39V123.66C1068.07 124.38 1063.21 125.04 1057.81 125.64C1052.53 126.12 1047.25 126.54 1041.97 126.9C1036.81 127.26 1032.01 127.44 1027.57 127.44ZM1093.46 126V2.16H1130.54V126H1093.46ZM1141.55 126L1178.27 2.16H1229.39L1265.93 126H1229.03L1223.09 104.76H1183.49L1177.73 126H1141.55ZM1190.15 78.48H1216.25L1203.83 32.76H1202.39L1190.15 78.48Z" fill="#404040"/>
</svg>
